<?xml version="1.0" standalone="no"?><!DOCTYPE svg PUBLIC "-//W3C//DTD SVG 1.1//EN" "http://www.w3.org/Graphics/SVG/1.1/DTD/svg11.dtd"><svg t="1614307034974" class="icon" viewBox="0 0 1095 1024" version="1.1" xmlns="http://www.w3.org/2000/svg" p-id="22790" xmlns:xlink="http://www.w3.org/1999/xlink" width="213.8671875" height="200"><defs><style type="text/css"></style></defs><path d="M825.726 862.01a460.514 460.514 0 0 0 134.175-508.926C893.721 172.039 721.857 51.5 529.334 51.122c-192.522-0.377-364.871 119.462-431.788 300.237A460.514 460.514 0 0 0 229.69 860.825l-75.27 75.288a51.522 51.522 0 0 0 0 72.773 51.378 51.378 0 0 0 72.72 0l89.282-89.408a459.526 459.526 0 0 0 422.25 0.934l88.366 88.474a51.36 51.36 0 0 0 72.576-0.054 51.522 51.522 0 0 0 0-72.791l-73.906-74.013z m-85.24-300.668H507.849a32.156 32.156 0 0 1-32.137-32.173V221.62c0-14.73 6.324-28.743 17.336-38.533a51.378 51.378 0 0 1 40.311-12.54 52.366 52.366 0 0 1 45.145 52.438v235.386h160.654a52.366 52.366 0 0 1 52.437 45.306 51.522 51.522 0 0 1-12.575 40.33 51.378 51.378 0 0 1-38.48 17.334h-0.035zM899.38 0.014A139.223 139.223 0 0 0 788 55.577a526.801 526.801 0 0 1 195.487 195.756 139.888 139.888 0 0 0 48.253-155.964A139.582 139.582 0 0 0 899.38 0.014z m-739.05 138.9a521.232 521.232 0 0 1 106.188-81.467A139.169 139.169 0 0 0 124.51 3.139 138.504 138.504 0 0 0 17.75 111.032c-10.87 53.894 11.389 109.044 56.675 140.5a518.322 518.322 0 0 1 85.906-112.6z" fill="#FF5C5C" p-id="22791"></path></svg>