<?xml version="1.0" standalone="no"?><!DOCTYPE svg PUBLIC "-//W3C//DTD SVG 1.1//EN" "http://www.w3.org/Graphics/SVG/1.1/DTD/svg11.dtd"><svg t="1614320705061" class="icon" viewBox="0 0 1077 1024" version="1.1" xmlns="http://www.w3.org/2000/svg" p-id="5559" xmlns:xlink="http://www.w3.org/1999/xlink" width="210.3515625" height="200"><defs><style type="text/css"></style></defs><path d="M109.918316 941.837474A110.053053 110.053053 0 0 1 0 831.919158V177.960421a110.053053 110.053053 0 0 1 109.918316-109.918316h94.181052v-39.343158C204.099368 12.880842 216.980211 0 232.825263 0c15.845053 0 28.725895 12.880842 28.725895 28.698947v39.343158h418.816v-39.343158c0-15.818105 12.880842-28.698947 28.698947-28.698947 15.845053 0 28.725895 12.880842 28.725895 28.698947v39.343158h94.181053a110.053053 110.053053 0 0 1 109.918315 109.918316v219.621053H57.397895v434.337684c0 28.968421 23.578947 52.547368 52.547368 52.547368h363.196632a28.483368 28.483368 0 0 1 20.48 48.397474 29.965474 29.965474 0 0 1-21.234527 8.973474H109.918316z m88.872421-170.09179a28.752842 28.752842 0 0 1-28.698948-28.698947c0-15.818105 12.880842-28.698947 28.698948-28.698948h170.064842c15.845053 0 28.725895 12.880842 28.725895 28.698948 0 15.845053-12.880842 28.698947-28.725895 28.698947H198.790737z m0-204.099368A28.752842 28.752842 0 0 1 170.091789 538.947368c0-15.818105 12.880842-28.698947 28.698948-28.698947h170.064842c15.845053 0 28.725895 12.880842 28.725895 28.698947s-12.880842 28.698947-28.725895 28.698948H198.790737z" fill="#20A0FF" p-id="5560"></path><path d="M811.115789 1009.852632a265.054316 265.054316 0 0 1-188.658526-78.147369 264.704 264.704 0 0 1-78.147368-188.631579c0-71.248842 27.755789-138.24 78.147368-188.658526a264.677053 264.677053 0 0 1 188.631579-78.147369c71.221895 0 138.24 27.755789 188.631579 78.147369a264.730947 264.730947 0 0 1 78.174316 188.631579c0 71.248842-27.755789 138.24-78.147369 188.631579a264.730947 264.730947 0 0 1-188.631579 78.174316z m-28.725894-238.106948v0.026948h130.775579c15.818105 0 28.698947-12.880842 28.698947-28.698948s-12.880842-28.698947-28.698947-28.698947h-73.377685v-73.350737c0-15.845053-12.880842-28.725895-28.698947-28.725895s-28.698947 12.880842-28.698947 28.725895v130.721684z" fill="#20A0FF" p-id="5561"></path></svg>