<?xml version="1.0" standalone="no"?><!DOCTYPE svg PUBLIC "-//W3C//DTD SVG 1.1//EN" "http://www.w3.org/Graphics/SVG/1.1/DTD/svg11.dtd"><svg t="1615268816827" class="icon" viewBox="0 0 1024 1024" version="1.1" xmlns="http://www.w3.org/2000/svg" p-id="4708" xmlns:xlink="http://www.w3.org/1999/xlink" width="200" height="200"><defs><style type="text/css"></style></defs><path d="M379.925625 972.517932h-31.404061V379.444513a25.741034 25.741034 0 0 0-51.482068 0v593.073419h-43.759758V379.444513a25.741034 25.741034 0 0 0-51.482067 0v593.073419h-43.759758V379.444513a25.741034 25.741034 0 0 0-51.482067 0v593.073419H76.181426a25.741034 25.741034 0 0 0 0 51.482068h303.744199a25.741034 25.741034 0 0 0 0-51.482068zM72.06286 338.773679h880.343357a20.592827 20.592827 0 0 0 12.355697-37.067088L527.164338 4.140239a17.967242 17.967242 0 0 0-12.355696-4.118565 22.188771 22.188771 0 0 0-12.355696 4.118565l-442.745782 297.566352a20.592827 20.592827 0 0 0 12.355696 37.067088z m442.745782-280.577269l339.266826 229.095202H170.393609zM923.473295 486.990552C819.27359 453.063869 745.448305 429.021744 730.518506 423.667609a57.145095 57.145095 0 0 0-63.786282 0c-14.981282 5.148207-88.806567 29.602189-193.006272 63.322943a52.408745 52.408745 0 0 0-36.809678 49.422785v0.823713a52.872084 52.872084 0 0 0 36.037447 48.805l190.638097 66.257421a56.630274 56.630274 0 0 0 70.067094 0l190.792543-66.257421a52.923566 52.923566 0 0 0 36.037447-49.113892v-0.669267a52.460227 52.460227 0 0 0-37.015607-49.268339z m-15.907959 50.400944L706.424898 607.510073l-4.170047 4.170047a5.148207 5.148207 0 0 1-3.655227 1.49298 5.148207 5.148207 0 0 1-3.603745-1.49298l-4.22153-4.170047-201.088956-70.118577c-0.669267 0-1.029641-0.617785-1.235569-0.617784a2.574103 2.574103 0 0 1 1.184087-0.823714c199.956351-64.815923 200.780064-65.433708 205.928271-69.552273a5.148207 5.148207 0 0 1 6.383776 0c5.148207 4.118565 5.868956 4.73635 205.928271 69.552273a2.162247 2.162247 0 0 1 1.081123 0.669267 3.037442 3.037442 0 0 1-1.390016 0.772231z" p-id="4709" fill="#1296db"></path><path d="M938.506059 671.244872L706.424898 751.659862l-4.170047 4.170047a5.148207 5.148207 0 0 1-3.655227 1.49298 5.148207 5.148207 0 0 1-3.603745-1.49298l-4.015601-4.015601-231.669305-85.305786A25.741034 25.741034 0 1 0 441.704106 714.592773l221.939194 81.702042a56.630274 56.630274 0 0 0 70.22154 0l221.681784-76.553835a25.741034 25.741034 0 1 0-16.783155-48.650554z" p-id="4710" fill="#1296db"></path><path d="M938.506059 810.246455L706.424898 890.661445l-4.170047 4.170047a5.148207 5.148207 0 0 1-3.655227 1.49298 5.148207 5.148207 0 0 1-3.603745-1.49298l-4.015601-4.015601-231.669305-85.305786A25.741034 25.741034 0 1 0 441.704106 853.594356l221.939194 81.702041a56.630274 56.630274 0 0 0 70.22154 0l221.681784-76.553834a25.741034 25.741034 0 1 0-16.783155-48.650554z" p-id="4711" fill="#1296db"></path></svg>