<?xml version="1.0" standalone="no"?><!DOCTYPE svg PUBLIC "-//W3C//DTD SVG 1.1//EN" "http://www.w3.org/Graphics/SVG/1.1/DTD/svg11.dtd"><svg t="1615268920259" class="icon" viewBox="0 0 1024 1024" version="1.1" xmlns="http://www.w3.org/2000/svg" p-id="4951" xmlns:xlink="http://www.w3.org/1999/xlink" width="200" height="200"><defs><style type="text/css"></style></defs><path d="M512 0a512 512 0 1 0 512 512A512 512 0 0 0 512 0z m460.8 499.712l-0.512-1.536a3.072 3.072 0 0 1-2.048 0.512l-2.048 0.512c-2.048 0.512-3.584 1.024-5.12 1.536l-1.536 0.512c-0.512 0-1.536 0.512-2.048 0.512s-2.048 0.512-3.072 0.512a28.3136 28.3136 0 0 1-4.608 0.512h-5.632c-0.512 0-1.024-0.512-1.536-0.512l-0.512-0.512a44.288 44.288 0 0 0-5.12-3.584l-1.024-1.024c-1.536-2.048-3.072-3.584-4.096-5.12-0.512-0.512-0.512-1.024-1.024-1.536l-1.024-1.536a11.2128 11.2128 0 0 0-1.536-2.56c0-0.512-0.512-1.024-0.512-1.536a8.6528 8.6528 0 0 1-1.024-2.56 11.264 11.264 0 0 0-0.512-4.096v0.512a14.1824 14.1824 0 0 0-0.512-4.608v-0.512c-0.512-2.048-0.512-4.096-1.024-6.144l-0.512-1.536-1.536-6.144c0-0.512-0.512-1.536-0.512-2.048a14.9504 14.9504 0 0 1-1.024-4.608l-0.512-1.024-1.536-4.608c-0.512-1.024-0.512-2.048-1.024-3.072a20.0704 20.0704 0 0 0-2.048-4.608l-3.072-6.144-0.512-0.512c-0.512-1.024-1.536-2.56-2.048-3.584l-0.512-0.512a64.768 64.768 0 0 0-5.12-7.68c-1.024-1.024-1.536-2.048-2.048-2.56s-1.536-1.536-2.048-2.56a61.696 61.696 0 0 0-6.144-6.656 49.8176 49.8176 0 0 0-7.68-5.632c-2.048-1.536-4.608-2.56-7.168-4.096s-3.584-1.536-5.632-2.56-4.608-1.536-6.144-2.56a39.2192 39.2192 0 0 0-12.8-2.048 44.1344 44.1344 0 0 0-11.776 1.536 55.7056 55.7056 0 0 0-15.872 5.632l-1.024 0.512a66.56 66.56 0 0 0-9.216 5.12l-0.512 0.512a84.2752 84.2752 0 0 0-15.36 12.288l-5.12 5.12-1.536 1.536a76.8 76.8 0 0 0-5.632 6.656l-0.512 0.512a78.4384 78.4384 0 0 0-8.192 12.8 45.3632 45.3632 0 0 0-4.096 8.704l-0.512 1.024c-1.024 2.048-1.536 4.096-2.56 6.144l-1.536 3.072-0.512 0.512c-0.512 1.024-1.536 2.048-2.048 3.072a7.0656 7.0656 0 0 1-1.536 2.048c-1.024 1.536-1.536 2.048-2.56 3.584l-2.048 2.048-3.072 3.072c-2.56 2.048-4.096 3.072-4.608 3.584a22.4256 22.4256 0 0 1-4.608 2.56c-1.024 0.512-1.536 0.512-2.56 1.024s-1.024 0.512-2.048 0.512a32.6144 32.6144 0 0 1-3.584 1.024h-1.024l-2.048 0.512h-6.144V486.4c0-0.512 0.512-1.536 0.512-2.048l0.512-1.024 1.536-4.608 0.512-2.048a24.9856 24.9856 0 0 1 1.536-3.584 35.2768 35.2768 0 0 1 1.536-4.096l0.512-1.536a17.0496 17.0496 0 0 0 1.536-3.072c0-0.512 0.512-1.024 1.024-1.536l1.536-3.072 0.512-1.024a30.208 30.208 0 0 0 2.048-4.096l0.512-0.512c0.512-1.024 1.536-2.56 2.048-3.584s2.048-4.608 3.072-6.656l0.512-1.024 1.536-3.072 1.024-2.56a1.792 1.792 0 0 1 0.512-1.024 35.2768 35.2768 0 0 0 2.048-5.12l0.512-1.536c0.512-1.536 2.048-5.632 3.072-8.704a1.792 1.792 0 0 1 0.512-1.024c0.512-1.536 1.536-3.584 2.56-6.656 0-0.512 0.512-0.512 0.512-1.024a43.008 43.008 0 0 0 2.048-7.168 13.0048 13.0048 0 0 1 1.024-3.584 44.5952 44.5952 0 0 0 2.56-9.728c0.512-2.048 0.512-3.584 1.024-5.12l0.512-2.56c0-1.024 0.512-3.584 1.024-6.656s1.024-7.68 1.536-10.752v-11.264a49.8688 49.8688 0 0 0-0.512-8.192v-2.56c0-1.536-0.512-2.56-0.512-4.096-0.512-2.56-1.024-6.144-1.536-9.216-0.512-1.536-0.512-3.072-1.024-4.096s-0.512-1.024-0.512-1.536c-1.024-4.608-2.56-8.192-3.072-10.24v-0.512c-1.024-2.56-2.048-5.12-4.096-9.216-0.512-0.512-0.512-1.024-1.024-1.536-1.024-1.536-2.048-4.096-3.584-6.656a76.3392 76.3392 0 0 0-7.68-10.24l-1.024-1.024a34.7648 34.7648 0 0 0-6.144-6.144 96 96 0 0 0-7.68-6.144 53.1968 53.1968 0 0 0-13.312-7.68 75.9808 75.9808 0 0 0-14.848-3.584 218.8288 218.8288 0 0 0-24.576-1.024 154.368 154.368 0 0 0-30.208 5.12 161.0752 161.0752 0 0 0-24.064 9.728l-1.024 0.512c1.024-0.512 1.536-0.512 2.048-1.024a131.3792 131.3792 0 0 0-19.456 11.776 162.5088 162.5088 0 0 0-21.504 19.456q-4.608 5.376-10.752 13.824c-1.024 1.024-1.536 2.048-2.048 2.56a101.0176 101.0176 0 0 0-13.312 23.04c-1.024 2.048-7.168 16.384-8.192 17.92a99.072 99.072 0 0 0-7.168 17.92c-1.024 2.56-2.048 5.12-2.56 6.144a81.5104 81.5104 0 0 1-8.192 12.288 72.96 72.96 0 0 1-11.776 9.728l-0.512 0.512a109.7728 109.7728 0 0 1-14.848 6.656 101.5296 101.5296 0 0 1-15.36 3.072 116.3776 116.3776 0 0 1-23.04 0.512 92.16 92.16 0 0 1-19.456-3.072l-12.288-4.096a23.6032 23.6032 0 0 1-7.168-2.56 28.0576 28.0576 0 0 0-37.888 28.16v8.704c-0.512 18.432-0.512 20.992 0 22.528a69.0688 69.0688 0 0 1-4.096 24.576 13.0048 13.0048 0 0 0-1.024 3.584 101.8368 101.8368 0 0 1-11.264 24.064 66.56 66.56 0 0 1-13.312 15.872 31.3856 31.3856 0 0 0-3.072 2.048c-4.096 2.56-16.384 9.728-18.432 11.264-19.968 10.752-26.112 12.288-26.624 12.288-8.192 1.536-27.136 3.584-29.184 4.096a168.96 168.96 0 0 1-22.528-0.512c-1.536 0-4.096 0-5.632-5.12a47.36 47.36 0 0 1 0-17.408v-0.512a139.6736 139.6736 0 0 1 6.656-25.088 3.8912 3.8912 0 0 0 0.512-2.048 94.9248 94.9248 0 0 1 8.704-20.48l0.512-1.024c2.56-4.096 9.216-15.36 9.216-15.872 6.144-10.24 9.216-16.384 10.24-17.92 0.512-0.512 1.536-3.072 3.072-5.632 11.264-20.48 11.264-20.992 11.776-22.528s5.12-10.752 6.144-12.8 1.536-2.56 7.168-16.384a48.4352 48.4352 0 0 1 3.584-8.192 475.2896 475.2896 0 0 0 18.432-50.176 228.5056 228.5056 0 0 0 10.24-66.56 115.2 115.2 0 0 0-9.728-44.544 97.28 97.28 0 0 0-23.04-31.232 76.4928 76.4928 0 0 0-30.208-16.896 67.1744 67.1744 0 0 0-27.136-3.584 109.9264 109.9264 0 0 0-23.04 3.072c-0.512 0-2.56 0.512-5.12 1.024a62.7712 62.7712 0 0 0-8.192 2.048c-9.728 1.536-16.384 2.048-16.896 2.048a46.08 46.08 0 0 1-15.36-2.048 15.36 15.36 0 0 1-6.656-3.584v-1.024c-0.512-2.048-0.512-4.096-1.024-5.632A457.8304 457.8304 0 0 1 511.488 50.688 462.6432 462.6432 0 0 1 972.8 499.712z m-320.512-174.592a8.6528 8.6528 0 0 1-2.56 1.024c0.512-0.512 1.536-0.512 2.56-1.024zM512 972.8A460.8 460.8 0 0 1 154.624 221.184a71.0144 71.0144 0 0 0 28.16 18.432 87.7568 87.7568 0 0 0 34.816 4.608 185.088 185.088 0 0 0 23.04-2.56c0.512 0 6.144-1.536 10.24-2.048l5.12-1.024a123.8528 123.8528 0 0 1 12.288-2.048h1.536a37.3248 37.3248 0 0 1 9.216 1.024l1.536 0.512a30.72 30.72 0 0 1 11.264 6.656 49.1008 49.1008 0 0 1 9.216 11.776l0.512 1.024a64.256 64.256 0 0 1 5.632 25.088v1.024a170.496 170.496 0 0 1-7.68 49.664v0.512a394.24 394.24 0 0 1-15.36 42.496c0 0.512-2.048 4.608-4.096 9.728s-5.12 11.776-6.144 13.312c-2.048 3.584-6.144 12.288-7.168 14.848s-6.656 12.8-10.752 19.968a61.44 61.44 0 0 0-3.072 6.144 132.0448 132.0448 0 0 1-9.216 15.872c-0.512 1.024-6.656 11.264-9.216 14.848l-1.024 1.536a156.416 156.416 0 0 0-13.312 31.744 213.6576 213.6576 0 0 0-9.216 35.328 97.28 97.28 0 0 0 1.536 39.936 56.7808 56.7808 0 0 0 51.712 41.472c0.512 0 11.776 0.512 20.992 0.512h7.68c3.072 0 24.576-2.56 35.328-4.608 6.144-1.024 16.896-4.096 41.472-17.92a146.8416 146.8416 0 0 0 25.6-15.872c6.144-4.096 15.872-11.776 28.16-31.232a156.8768 156.8768 0 0 0 17.92-38.912v-0.512a116.736 116.736 0 0 0 6.144-41.472 211.712 211.712 0 0 0 23.04 3.072 219.2896 219.2896 0 0 0 31.744-1.024 152.4224 152.4224 0 0 0 26.624-5.632 115.5072 115.5072 0 0 0 27.648-13.824 100.9152 100.9152 0 0 0 36.864-43.008c0-0.512 1.536-4.096 3.072-8.192 2.048-5.12 4.608-11.776 5.632-13.824 2.048-4.608 8.704-18.432 9.728-21.504l4.608-9.216c1.024-1.536 2.56-3.072 4.608-6.144 1.536-2.048 5.12-6.656 6.144-8.192l0.512-0.512a146.0224 146.0224 0 0 1 13.312-12.8 109.6192 109.6192 0 0 0 9.728-6.656c0.512-0.512 1.536-0.512 2.048-1.024a90.9312 90.9312 0 0 1 15.36-6.656 99.2256 99.2256 0 0 1 19.456-3.072 134.144 134.144 0 0 1 14.336 0.512h0.512a10.24 10.24 0 0 1 2.56 0.512 1.792 1.792 0 0 1 1.024 0.512l1.024 1.024c0.512 0.512 2.048 1.536 4.096 3.072l1.536 1.536 1.536 1.536c1.024 1.024 2.048 2.048 2.048 3.072s1.024 1.536 1.536 2.56l1.536 3.072c0.512 0.512 0.512 0.512 0.512 1.536l1.024 2.56a3.072 3.072 0 0 1 0.512 2.048 9.472 9.472 0 0 0 1.024 3.584c0 0.512 0.512 1.536 0.512 2.048 0.512 2.048 0.512 3.584 1.024 5.632a4.608 4.608 0 0 0 0.512 2.56 10.24 10.24 0 0 0 0.512 3.584v9.216c0 1.536-0.512 4.608-0.512 6.144-0.512 3.584-1.024 6.656-1.024 7.68v1.024a22.528 22.528 0 0 1-1.024 5.12c0 0.512-0.512 1.024-0.512 1.536a55.9616 55.9616 0 0 0-2.56 8.704c0 0.512 0 0.512-0.512 1.024l-1.536 4.608c0 0.512-0.512 1.536-0.512 2.048l-1.536 4.608a24.9856 24.9856 0 0 1-1.536 3.584 7.2704 7.2704 0 0 0-1.024 3.072v0.512c-1.024 2.048-1.536 3.584-2.56 5.632l-1.024 2.56a60.0576 60.0576 0 0 0-2.56 5.632c-0.512 1.024-0.512 1.536-1.024 2.56l-0.512 0.512a47.5648 47.5648 0 0 0-2.56 5.12c-0.512 0.512-0.512 1.536-1.024 2.048l-0.512 1.536c-0.512 0.512-0.512 1.024-1.024 1.536a30.4128 30.4128 0 0 1-2.048 4.096l-1.024 2.048a8.6528 8.6528 0 0 0-1.024 2.56c-0.512 1.024-1.024 2.56-2.048 4.608s-1.536 3.584-2.048 5.632l-0.512 1.536c-1.024 2.048-1.536 5.12-2.56 7.68v1.024l-1.536 6.144-0.512 1.536a59.2384 59.2384 0 0 0-2.048 13.824 83.0976 83.0976 0 0 0 0.512 10.752 29.4912 29.4912 0 0 0 1.024 5.12 33.8432 33.8432 0 0 0 7.68 13.824 35.84 35.84 0 0 0 12.8 10.752 41.8816 41.8816 0 0 0 9.728 4.608 23.808 23.808 0 0 0 4.608 1.536h1.024a33.3824 33.3824 0 0 0 9.216 1.024h8.704a65.1776 65.1776 0 0 0 11.264-1.024h1.536c2.56-0.512 5.632-1.024 9.728-2.048l1.024-0.512c1.536-0.512 3.584-1.024 5.12-1.536a53.2992 53.2992 0 0 0 6.144-2.56 54.4256 54.4256 0 0 0 11.264-6.656c2.56-2.048 5.632-4.096 9.216-7.168a53.248 53.248 0 0 0 9.728-9.728c0.512-0.512 1.024-1.536 2.048-2.048l0.512-0.512c1.536-2.048 2.048-2.56 4.096-5.12a35.84 35.84 0 0 0 3.072-4.608 3.8912 3.8912 0 0 0 1.024-2.048c1.536-2.048 2.56-4.096 3.584-5.632l0.512-0.512a36.7104 36.7104 0 0 0 5.12-11.264c0-0.512 0-0.512 0.512-1.024l0.512-1.536a20.736 20.736 0 0 1 2.56-4.608 18.9952 18.9952 0 0 1 3.072-4.608 7.0656 7.0656 0 0 0 1.536-2.048c0.512-0.512 0.512-1.024 1.024-1.536a13.568 13.568 0 0 0 2.56-3.072 11.1616 11.1616 0 0 0 2.048-2.56c2.56-2.048 4.608-4.096 5.632-4.608a10.7008 10.7008 0 0 0 3.072-2.048 3.8912 3.8912 0 0 1 2.048-1.024l1.024-0.512a35.2768 35.2768 0 0 1 4.096-1.536c0.512 0 1.024-0.512 1.536-0.512a0.512 0.512 0 0 1 0.512 0.512c0.512 0.512 1.536 0.512 2.56 1.024l3.072 1.536c0.512 0 0.512 0.512 1.024 0.512l1.536 2.048a21.6576 21.6576 0 0 1 2.56 3.584c0.512 1.024 1.024 1.536 1.536 2.56l0.512 1.024a11.2128 11.2128 0 0 0 1.536 2.56c0 0.512 0.512 1.024 1.024 1.536l1.536 3.072v0.512c0 0.512 0 1.024 0.512 1.024l0.512 1.536c0 0.512 0.512 1.536 0.512 2.048s0.512 2.56 1.024 3.584a1.8944 1.8944 0 0 0 0.512 1.536 22.1696 22.1696 0 0 0 0.512 2.56 3.072 3.072 0 0 0 0.512 2.048v1.536c0 1.024 0 2.56 0.512 3.072v4.608a33.1776 33.1776 0 0 0 4.608 13.824l0.512 1.024a40.6016 40.6016 0 0 0 2.048 4.608c1.024 1.536 2.048 4.096 3.072 5.632l0.512 1.024a40.96 40.96 0 0 0 4.608 7.168c1.536 2.048 3.584 4.096 5.632 6.656a57.2416 57.2416 0 0 0 9.728 8.704 28.16 28.16 0 0 1 4.608 3.584 45.7728 45.7728 0 0 0 11.776 6.656c1.536 0.512 4.096 1.536 7.168 2.56a47.6672 47.6672 0 0 0 13.312 1.536h1.024a38.7584 38.7584 0 0 0 7.68-0.512 61.44 61.44 0 0 0 11.776-2.048h1.024a3.072 3.072 0 0 0 2.048-0.512 458.7008 458.7008 0 0 1-457.216 424.96z" p-id="4952" fill="#06e0cf"></path><path d="M783.872 734.208a64.6656 64.6656 0 0 0-2.048-16.896c0-1.024-0.512-2.048-0.512-3.072s-0.512-3.584-1.024-5.12-1.024-3.584-1.536-5.632a22.1696 22.1696 0 0 0-0.512-2.56 74.24 74.24 0 0 0-3.072-9.728c0-0.512-0.512-1.024-0.512-2.048a69.2736 69.2736 0 0 0-4.608-11.264v-0.512a76.8 76.8 0 0 0-4.608-9.216 30.4128 30.4128 0 0 1-2.048-4.096 46.08 46.08 0 0 0-16.384-19.456c-0.512-1.536-1.536-3.072-2.048-4.608-0.512-0.512-0.512-1.024-1.024-1.536-1.024-2.048-1.536-3.584-2.56-5.632s-2.56-4.608-4.096-7.168-2.56-3.584-3.072-4.608a42.3936 42.3936 0 0 0-4.608-7.68 80.1792 80.1792 0 0 0-12.8-17.92 52.736 52.736 0 0 0-13.824-10.24 58.5216 58.5216 0 0 0-20.48-5.632 49.2544 49.2544 0 0 0-31.232 10.752 60.5184 60.5184 0 0 0-13.824 15.872 74.0352 74.0352 0 0 0-8.192 32.256c-0.512 1.536-1.024 5.12-1.536 6.656a119.8592 119.8592 0 0 1-10.24 19.968 136.192 136.192 0 0 1-25.088 27.136 91.4432 91.4432 0 0 0-34.304 61.44v1.024a29.184 29.184 0 0 0-0.512 6.656 61.696 61.696 0 0 0 1.536 18.944 96.768 96.768 0 0 0 5.12 17.92 109.1584 109.1584 0 0 0 13.312 23.04l0.512 0.512a93.4912 93.4912 0 0 0 8.704 10.24c3.584 3.584 7.68 7.68 11.776 11.264a97.5872 97.5872 0 0 0 11.264 8.704l1.536 1.024a71.68 71.68 0 0 0 8.192 5.12l1.024 0.512a49.0496 49.0496 0 0 0 10.752 5.632c2.56 1.024 5.632 2.56 8.704 4.096a119.3984 119.3984 0 0 0 13.824 5.12 111.104 111.104 0 0 0 13.824 3.584h0.512a55.808 55.808 0 0 0 12.288 1.536c3.072 0 6.656 0.512 10.24 0.512h0.512c3.584 0 7.168-0.512 9.216-0.512h2.56a65.3824 65.3824 0 0 0 8.704-1.024h1.024a54.0672 54.0672 0 0 0 9.728-3.072h-0.512c1.024-0.512 2.56-1.024 3.584-1.536l0.512-0.512a45.4144 45.4144 0 0 0 12.8-8.192 63.488 63.488 0 0 0 9.216-10.24 32.9216 32.9216 0 0 0 5.632-11.776l0.512-1.024a51.968 51.968 0 0 0 3.072-12.8c2.048-2.56 4.608-6.656 7.68-11.264l1.024-1.536a88.064 88.064 0 0 0 8.704-18.944l0.512-1.536a72.9088 72.9088 0 0 0 3.072-10.752c0.512-1.024 0.512-2.56 1.024-3.584 1.024-3.072 1.536-6.144 2.56-9.728s0.512-5.632 1.024-7.68v-2.048a118.784 118.784 0 0 0 1.024-12.288 112.896 112.896 0 0 0 0-13.824z m-51.2 12.8c0 2.048-0.512 4.608-0.512 7.168s-0.512 3.584-0.512 5.632v2.048a47.36 47.36 0 0 1-1.536 5.12l-1.536 6.144a28.8768 28.8768 0 0 1-2.048 6.144 12.032 12.032 0 0 0-1.024 4.096c-0.512 1.536-3.072 5.632-4.096 8.192l-1.024 2.048a39.0656 39.0656 0 0 1-4.096 5.632 32.256 32.256 0 0 0-9.216 23.04v0.512a7.2704 7.2704 0 0 0-1.024 3.072l-0.512 0.512h-0.512l-1.024 0.512c-0.512 0-0.512 0-0.512 0.512s-1.024 0.512-2.048 0.512l-2.56 0.512c-1.536 0-2.56 0.512-4.096 0.512a22.1696 22.1696 0 0 0-2.56 0.512h-7.168a19.0976 19.0976 0 0 1-6.144-1.024h-1.024a60.1088 60.1088 0 0 1-8.192-2.048c-2.56-1.024-5.632-2.048-9.216-3.584s-5.632-2.56-8.192-3.584a29.3888 29.3888 0 0 1-3.584-2.048 29.3888 29.3888 0 0 0-3.584-2.048 30.2592 30.2592 0 0 1-4.096-2.56l-1.536-1.024a53.6064 53.6064 0 0 1-5.632-4.096c-3.584-3.584-7.168-7.168-10.752-10.24a35.84 35.84 0 0 1-4.096-5.12l-1.536-1.536a44.1344 44.1344 0 0 1-6.144-10.752 57.344 57.344 0 0 1-2.048-8.192 38.2464 38.2464 0 0 1-0.512-5.632 3.072 3.072 0 0 1 0.512-2.048c0-1.536 0.512-3.072 0.512-4.096a42.3424 42.3424 0 0 1 15.36-25.6 216.4736 216.4736 0 0 0 35.84-38.912 137.0624 137.0624 0 0 0 16.384-31.744 89.8048 89.8048 0 0 0 4.608-24.576c0.512-1.024 0.512-3.072 1.024-4.608 1.024 1.024 1.536 2.048 2.048 2.56a32.512 32.512 0 0 0 3.584 6.144c0 0.512 0.512 0.512 0.512 1.024a100.4032 100.4032 0 0 0 6.144 10.752 20.736 20.736 0 0 1 2.56 4.608c0.512 0.512 0.512 1.536 1.024 2.048a49.8688 49.8688 0 0 1 2.56 5.632c0 0.512 0.512 1.024 0.512 1.536 1.024 2.048 2.048 5.632 4.096 9.216a33.536 33.536 0 0 0 12.8 11.776 1.792 1.792 0 0 0 0.512 1.024c1.024 2.048 2.048 3.584 3.072 5.632 0.512 1.024 1.024 1.536 1.536 2.56a24.9856 24.9856 0 0 1 1.536 3.584l1.536 3.072c0.512 1.536 1.024 3.584 1.536 5.12s0.512 1.536 1.024 2.56 1.024 3.584 1.536 5.632a22.1696 22.1696 0 0 0 0.512 2.56c0 1.024 0.512 2.048 0.512 3.584s0.512 3.584 1.024 5.12c0.512 3.584 0.512 5.632 1.024 7.68v2.56c-1.536-1.024-1.024 2.56-1.536 6.656z" p-id="4953" fill="#06e0cf"></path></svg>