<?xml version="1.0" standalone="no"?><!DOCTYPE svg PUBLIC "-//W3C//DTD SVG 1.1//EN" "http://www.w3.org/Graphics/SVG/1.1/DTD/svg11.dtd"><svg t="1616124187519" class="icon" viewBox="0 0 1024 1024" version="1.1" xmlns="http://www.w3.org/2000/svg" p-id="2073" xmlns:xlink="http://www.w3.org/1999/xlink" width="200" height="200"><defs><style type="text/css"></style></defs><path d="M909.061224 167.183673a20.897959 20.897959 0 0 1 20.89796 20.89796v752.32653a20.897959 20.897959 0 0 1-20.89796 20.897959H114.938776a20.897959 20.897959 0 0 1-20.89796-20.897959V188.081633a20.897959 20.897959 0 0 1 20.89796-20.89796h794.122448m0-62.693877H114.938776a83.591837 83.591837 0 0 0-83.591837 83.591837v752.32653a83.591837 83.591837 0 0 0 83.591837 83.591837h794.122448a83.591837 83.591837 0 0 0 83.591837-83.591837V188.081633a83.591837 83.591837 0 0 0-83.591837-83.591837z" fill="#333333" p-id="2074"></path><path d="M935.183673 397.061224h-856.816326a31.346939 31.346939 0 1 1 0-62.693877h856.816326a31.346939 31.346939 0 0 1 0 62.693877z" fill="#333333" p-id="2075"></path><path d="M747.102041 626.938776h-491.102041a31.346939 31.346939 0 0 1 0-62.693878h491.102041a31.346939 31.346939 0 0 1 0 62.693878zM517.22449 773.22449h-261.22449a31.346939 31.346939 0 0 1 0-62.693878h261.22449a31.346939 31.346939 0 0 1 0 62.693878z" fill="#3399FF" p-id="2076"></path><path d="M344.816327 271.673469a31.346939 31.346939 0 0 1-31.346939-31.346938v-208.979592a31.346939 31.346939 0 0 1 62.693877 0v208.979592A31.346939 31.346939 0 0 1 344.816327 271.673469zM679.183673 271.673469a31.346939 31.346939 0 0 1-31.346938-31.346938v-208.979592a31.346939 31.346939 0 1 1 62.693877 0v208.979592A31.346939 31.346939 0 0 1 679.183673 271.673469z" fill="#333333" p-id="2077"></path></svg>