<?xml version="1.0" standalone="no"?><!DOCTYPE svg PUBLIC "-//W3C//DTD SVG 1.1//EN" "http://www.w3.org/Graphics/SVG/1.1/DTD/svg11.dtd"><svg t="1614927568311" class="icon" viewBox="0 0 1024 1024" version="1.1" xmlns="http://www.w3.org/2000/svg" p-id="3652" xmlns:xlink="http://www.w3.org/1999/xlink" width="200" height="200"><defs><style type="text/css"></style></defs><path d="M512 921.6c141.312 0 256-114.688 256-256 0-123.392-88.064-226.816-204.8-250.88V102.4H460.8v312.32c-116.736 24.064-204.8 127.488-204.8 250.88 0 141.312 114.688 256 256 256z m153.6-579.584c121.344 57.344 204.8 180.736 204.8 323.584 0 198.144-160.256 358.4-358.4 358.4-197.632 0-358.4-160.256-358.4-358.4 0-142.848 83.968-266.24 204.8-323.072V102.4H307.2V0h409.6v102.4h-51.2v239.616z m-307.0976 323.7376v-102.4h102.4v102.4h-102.4z m204.8 102.4v-102.4h102.4v102.4h-102.4z" fill="#6F9EFF" p-id="3653"></path></svg>