<?xml version="1.0" standalone="no"?><!DOCTYPE svg PUBLIC "-//W3C//DTD SVG 1.1//EN" "http://www.w3.org/Graphics/SVG/1.1/DTD/svg11.dtd"><svg t="1614320642137" class="icon" viewBox="0 0 1024 1024" version="1.1" xmlns="http://www.w3.org/2000/svg" p-id="3169" xmlns:xlink="http://www.w3.org/1999/xlink" width="200" height="200"><defs><style type="text/css"></style></defs><path d="M521.309091 956.509091H160.581818c-74.472727 0-137.309091-62.836364-137.309091-137.309091v-162.909091c0-74.472727 62.836364-137.309091 137.309091-137.309091h360.727273c74.472727 0 137.309091 62.836364 137.309091 137.309091v162.909091c0 74.472727-60.509091 137.309091-137.309091 137.309091z" fill="#14C75F" opacity=".15" p-id="3170"></path><path d="M477.090909 619.054545h72.145455c20.945455 0 34.909091-16.290909 34.909091-34.90909 0-20.945455-16.290909-34.909091-34.909091-34.909091h-72.145455c-20.945455 0-34.909091 16.290909-34.909091 34.909091-2.327273 18.618182 13.963636 34.909091 34.909091 34.90909z m0 144.29091h72.145455c20.945455 0 34.909091-16.290909 34.909091-34.909091s-16.290909-34.909091-34.909091-34.909091h-72.145455c-20.945455 0-34.909091 16.290909-34.909091 34.909091-2.327273 18.618182 13.963636 34.909091 34.909091 34.909091zM870.4 116.363636h-144.290909V81.454545c0-20.945455-16.290909-34.909091-34.909091-34.90909-20.945455 0-34.909091 16.290909-34.909091 34.90909V116.363636H367.709091V81.454545c0-20.945455-16.290909-34.909091-34.909091-34.90909-20.945455 0-34.909091 16.290909-34.909091 34.90909V116.363636H153.6C74.472727 116.363636 9.309091 181.527273 9.309091 260.654545v574.836364c0 79.127273 65.163636 144.290909 144.290909 144.290909h719.127273c79.127273 0 144.290909-65.163636 144.290909-144.290909V260.654545C1014.690909 181.527273 949.527273 116.363636 870.4 116.363636z m72.145455 719.127273c0 39.563636-32.581818 72.145455-72.145455 72.145455H153.6c-39.563636 0-72.145455-32.581818-72.145455-72.145455V404.945455h861.09091v430.545454z m0-502.690909h-861.09091v-72.145455c0-39.563636 32.581818-72.145455 72.145455-72.145454h144.290909v34.909091c0 20.945455 16.290909 34.909091 34.909091 34.909091 20.945455 0 34.909091-16.290909 34.909091-34.909091V188.509091h286.254545v34.909091c0 20.945455 16.290909 34.909091 34.909091 34.909091 20.945455 0 34.909091-16.290909 34.909091-34.909091V188.509091h144.290909c39.563636 0 72.145455 32.581818 72.145455 72.145454v72.145455zM260.654545 763.345455h72.145455c20.945455 0 34.909091-16.290909 34.909091-34.909091s-16.290909-34.909091-34.909091-34.909091h-72.145455c-20.945455 0-34.909091 16.290909-34.90909 34.909091s13.963636 34.909091 34.90909 34.909091z m430.545455-144.29091h72.145455c20.945455 0 34.909091-16.290909 34.90909-34.90909 0-20.945455-16.290909-34.909091-34.90909-34.909091h-72.145455c-20.945455 0-34.909091 16.290909-34.909091 34.909091s16.290909 34.909091 34.909091 34.90909z m-430.545455 0h72.145455c20.945455 0 34.909091-16.290909 34.909091-34.90909 0-20.945455-16.290909-34.909091-34.909091-34.909091h-72.145455c-20.945455 0-34.909091 16.290909-34.90909 34.909091s13.963636 34.909091 34.90909 34.90909z m430.545455 144.29091h72.145455c20.945455 0 34.909091-16.290909 34.90909-34.909091s-16.290909-34.909091-34.90909-34.909091h-72.145455c-20.945455 0-34.909091 16.290909-34.909091 34.909091s16.290909 34.909091 34.909091 34.909091z m0 0" fill="#14C75F" p-id="3171"></path></svg>