<?xml version="1.0" standalone="no"?><!DOCTYPE svg PUBLIC "-//W3C//DTD SVG 1.1//EN" "http://www.w3.org/Graphics/SVG/1.1/DTD/svg11.dtd"><svg t="1614305898604" class="icon" viewBox="0 0 1024 1024" version="1.1" xmlns="http://www.w3.org/2000/svg" p-id="20496" xmlns:xlink="http://www.w3.org/1999/xlink" width="200" height="200"><defs><style type="text/css"></style></defs><path d="M101.255529 125.952c44.393412 0 80.293647 35.960471 80.293647 80.353882v43.248942H20.961882v-43.248942c0-44.393412 35.960471-80.353882 80.293647-80.353882zM20.961882 861.184h160.587294v43.188706a80.293647 80.293647 0 0 1-160.587294 0v-43.188706z m849.016471-61.801412h114.748235v127.939765a57.344 57.344 0 0 1-114.748235 0v-127.939765z m0-234.797176h114.748235v185.344h-114.748235V564.585412z m57.344-234.736941c31.683765 0 57.404235 25.660235 57.404235 57.344v128h-114.748235V387.192471c0-31.683765 25.660235-57.344 57.344-57.344zM20.961882 298.947765h160.587294v512.783059H20.961882V298.947765zM359.424 20.961882c63.367529 0 114.748235 51.380706 114.748235 114.748236v8.794353h-229.49647v-8.794353c0-63.367529 51.380706-114.748235 114.748235-114.748236zM244.675765 861.184h229.49647v8.794353a114.748235 114.748235 0 0 1-229.49647 0v-8.794353z m0-667.226353h229.49647v617.773177h-229.49647V193.957647z m407.311059-68.005647h40.176941a120.470588 120.470588 0 0 1 120.470588 120.470588v617.833412a120.470588 120.470588 0 0 1-120.470588 120.470588h-40.176941a120.470588 120.470588 0 0 1-120.470589-120.470588V246.362353a120.470588 120.470588 0 0 1 120.470589-120.470588z" fill="#65D4A7" p-id="20497"></path></svg>