<?xml version="1.0" standalone="no"?><!DOCTYPE svg PUBLIC "-//W3C//DTD SVG 1.1//EN" "http://www.w3.org/Graphics/SVG/1.1/DTD/svg11.dtd"><svg t="1614928015442" class="icon" viewBox="0 0 1312 1024" version="1.1" xmlns="http://www.w3.org/2000/svg" p-id="4925" xmlns:xlink="http://www.w3.org/1999/xlink" width="256.25" height="200"><defs><style type="text/css"></style></defs><path d="M1240.784 427.808c1.456 36.096 14.4 70.128 18.768 105.776 12.72 103.6 15.184 206.224-23.024 306-31.552 82.464-93.92 127.088-177.92 143.392-76.32 14.816-153.184 12.64-230.592 6.672-69.984-5.376-140.352-0.752-210.176 8.272-24.32 3.152-49.024 3.888-73.312 5.328-61.312 3.632-122.832 11.328-184.288 6.128-83.84-7.088-167.76-13.92-241.344-62.832-56.416-37.504-88.768-90.288-99.488-154.912-20.272-122.24 3.568-237.28 65.952-344.272C203.472 244.784 380.592 114.88 596.656 33.424 642.784 16.032 691.296 5.392 740.4 5.28 817.376 5.12 889.136 27.872 955.632 66.448c89.968 52.224 161.008 123.68 214.272 212.96 5.376 9.04 12.032 17.28 18.112 25.904-7.76 9.488 40.864 36.656 52.768 122.496" fill="#DAEDF5" p-id="4926"></path><path d="M0 878.368h1307.968v-52.56H0zM888.032 716.16a7.472 7.472 0 1 1-14.928 0v-50.112a7.456 7.456 0 1 1 14.928 0v50.128z" fill="#004B90" p-id="4927"></path><path d="M888.032 666.368a7.792 7.792 0 0 1-7.792 7.792h-124.272a7.792 7.792 0 0 1 0-15.584h124.272c4.304 0 7.792 3.504 7.792 7.792" fill="#004B90" p-id="4928"></path><path d="M815.648 585.712a11.248 11.248 0 0 1-15.84-0.688l-25.12-27.408a11.248 11.248 0 0 1 0.688-15.84l12.768-11.696c4.528-4.16 11.664-3.84 15.824 0.688l25.12 27.408c4.16 4.544 3.856 11.68-0.688 15.84l-12.752 11.68z" fill="#00C368" p-id="4929"></path><path d="M1015.504 410.512a9.312 9.312 0 0 1-13.12-0.576l-35.648-38.88a9.328 9.328 0 0 1 0.576-13.12l53.488-48.88a9.296 9.296 0 0 1 13.12 0.576l35.664 38.896c3.44 3.76 3.2 9.664-0.576 13.12l-53.504 48.864z" fill="#004B90" p-id="4930"></path><path d="M887.248 556.016a11.248 11.248 0 0 1-15.84-0.688l-60.912-66.448a11.248 11.248 0 0 1 0.688-15.84l144.544-132.48a11.232 11.232 0 0 1 15.84 0.688l60.912 66.448c4.16 4.544 3.84 11.68-0.688 15.84l-144.544 132.48z" fill="#FFFFFF" p-id="4931"></path><path d="M853.072 587.344a11.232 11.232 0 0 1-15.84-0.688l-60.912-66.448a11.264 11.264 0 0 1 0.704-15.856l34.96-31.36 76.048 82.992-34.96 31.36z" fill="#004B90" p-id="4932"></path><path d="M1052.24 604.16c0-97.936-121.568-126.752-121.568-126.752-5.616-2.512-10.24 0.464-10.24 6.64v23.92c0 6.176 4.608 13.296 10.24 15.84 0 0 75.216 21.536 75.216 80.912 0 59.36-56.48 107.936-95.584 107.936H746.32c-6.16 0-11.2 5.04-11.2 11.2v26.144c0 6.176 5.04 11.216 11.2 11.216H910.24c66.24 0 142-59.12 142-157.056" fill="#9DC4D1" p-id="4933"></path><path d="M987.696 817.264c0 6.16-5.04 11.2-11.2 11.2H688.8a11.248 11.248 0 0 1-11.216-11.2v-3.744c0-6.16 5.04-11.2 11.2-11.2h287.68c6.176 0 11.216 5.04 11.216 11.2v3.744z" fill="#004B90" p-id="4934"></path><path d="M987.76 492.368a51.104 51.104 0 1 1-102.192 0 51.104 51.104 0 0 1 102.192 0" fill="#00C368" p-id="4935"></path><path d="M972.352 492.368a35.68 35.68 0 1 1-71.392 0 35.68 35.68 0 0 1 71.392 0" fill="#403833" p-id="4936"></path><path d="M1002.432 828.48H830.72v-115.856h85.424l88.304 109.472s5.616 6.384-2.016 6.384" fill="#FFFFFF" p-id="4937"></path><path d="M955.296 492.368a18.624 18.624 0 1 1-37.28 0 18.624 18.624 0 0 1 37.28 0" fill="#4791D9" p-id="4938"></path><path d="M873.104 740.368a11.12 11.12 0 1 1-22.24 0 11.12 11.12 0 0 1 22.24 0M868.512 813.44a11.12 11.12 0 1 1-22.224-0.016 11.12 11.12 0 0 1 22.24 0" fill="#004B90" p-id="4939"></path><path d="M347.584 243.52c-14.384-14.384-21.44-22.704-24.368-38.592l-60.608 60.608c15.888 2.928 24.208 10 38.592 24.368l51.84 51.888 46.416-46.432c-14.912-14.928-38.192-38.16-51.872-51.84M500.976 172.432c0-26.352 1.168-40.448 13.04-57.712h-111.104c11.856 17.264 13.024 31.36 13.024 57.712l-0.016 95.072h85.088l-0.032-95.072M633.328 503.84c7.104-7.104 11.216-10.592 19.072-12.064l-29.952-29.952c-1.456 7.84-4.96 11.968-12.064 19.088l-101.232 101.2 22.96 22.96 101.216-101.216" fill="#FFFFFF" p-id="4940"></path><path d="M580.784 598.24a122.304 122.304 0 0 1-122.32 122.304 122.304 122.304 0 1 1 0-244.624 122.304 122.304 0 0 1 122.32 122.304" fill="#FFFFFF" p-id="4941"></path><path d="M580.784 376.224a122.304 122.304 0 1 1-244.64 0 122.304 122.304 0 0 1 244.64 0" fill="#FFFFFF" p-id="4942"></path><path d="M592.624 826.72h-268.32a134.16 134.16 0 0 1 268.32 0" fill="#F1F0EF" p-id="4943"></path><path d="M488.048 711.776v-22.752a95.28 95.28 0 0 0 66.192-84.032c-60.16-1.136-128.368-27.984-189.008-21.232a95.28 95.28 0 0 0-1.216 14.464 95.264 95.264 0 0 0 66.464 90.8v22.752a103.968 103.968 0 0 0-75.2 99.872h208a103.968 103.968 0 0 0-75.232-99.872M511.904 563.152a19.52 19.52 0 1 1-39.04 0 19.52 19.52 0 0 1 39.04 0M450.192 526.512a14.656 14.656 0 1 1-29.296 0 14.656 14.656 0 0 1 29.296 0M478.8 465.648a19.52 19.52 0 1 1-39.04 0 19.52 19.52 0 0 1 39.04 0M509.152 425.856a11.296 11.296 0 1 1-22.608 0 11.296 11.296 0 0 1 22.608 0M432.208 404.432a11.312 11.312 0 1 1-22.608 0 11.312 11.312 0 0 1 22.608 0M444.672 297.488a9.12 9.12 0 1 1-18.24 0.016 9.12 9.12 0 0 1 18.24 0M477.536 364.8a9.12 9.12 0 1 1-18.272 0.032 9.12 9.12 0 0 1 18.272-0.016" fill="#01AF63" p-id="4944"></path></svg>