<?xml version="1.0" standalone="no"?><!DOCTYPE svg PUBLIC "-//W3C//DTD SVG 1.1//EN" "http://www.w3.org/Graphics/SVG/1.1/DTD/svg11.dtd"><svg t="1614322066434" class="icon" viewBox="0 0 1024 1024" version="1.1" xmlns="http://www.w3.org/2000/svg" p-id="7071" xmlns:xlink="http://www.w3.org/1999/xlink" width="200" height="200"><defs><style type="text/css"></style></defs><path d="M559.6296875 107.65390625a67.6265625 67.6265625 0 0 0-90.871875 0L101.3046875 456.565625a33.89765625 33.89765625 0 0 0 45.39375 50.35078125l5.84296875-5.54765625V865.53125a67.7953125 67.7953125 0 0 0 67.7953125 67.8796875h197.28984375v-204.103125a47.73515625 47.73515625 0 0 1 47.75625-47.7984375h92.83359375a47.73515625 47.73515625 0 0 1 47.75625 47.7984375v204.103125h201.97265625a67.7953125 67.7953125 0 0 0 67.81640625-67.8796875V505.81953125c15.0609375 13.6265625 36.42890625 12.59296875 48.95859375-1.37109375a33.89765625 33.89765625 0 0 0-2.446875-47.8828125L559.6296875 107.675z" fill="#ff6c00" p-id="7072"></path></svg>