<?xml version="1.0" standalone="no"?><!DOCTYPE svg PUBLIC "-//W3C//DTD SVG 1.1//EN" "http://www.w3.org/Graphics/SVG/1.1/DTD/svg11.dtd"><svg t="1614927463432" class="icon" viewBox="0 0 1024 1024" version="1.1" xmlns="http://www.w3.org/2000/svg" p-id="2066" xmlns:xlink="http://www.w3.org/1999/xlink" width="200" height="200"><defs><style type="text/css"></style></defs><path d="M907.3152 460.288l-358.5536-344.2176a51.69664 51.69664 0 0 0-71.8336 0L118.4256 460.288c-15.36 14.7456-20.1216 37.0176-12.1856 56.7296s26.8288 32.512 48.128 32.512h14.336v314.5216c0 28.5696 23.2448 51.8656 51.8656 51.8656h580.6592c28.5696 0 51.8656-23.2448 51.8656-51.8656v-314.5216h18.3296c21.2992 0 40.1408-12.7488 48.128-32.512 7.8848-19.712 3.1232-41.984-12.2368-56.7296z m-327.2192 360.3968c0 1.4336-1.1264 2.56-2.56 2.56H448.1536c-1.4336 0-2.56-1.1264-2.56-2.56v-164.0448c0-37.0688 30.1568-67.2768 67.2768-67.2768 37.0688 0 67.2768 30.1568 67.2768 67.2768v164.0448z" fill="#9fc6ff" p-id="2067"></path></svg>