<?xml version="1.0" standalone="no"?><!DOCTYPE svg PUBLIC "-//W3C//DTD SVG 1.1//EN" "http://www.w3.org/Graphics/SVG/1.1/DTD/svg11.dtd"><svg t="1614305617032" class="icon" viewBox="0 0 1024 1024" version="1.1" xmlns="http://www.w3.org/2000/svg" p-id="16452" xmlns:xlink="http://www.w3.org/1999/xlink" width="200" height="200"><defs><style type="text/css"></style></defs><path d="M288.4352 631.4496a32.4608 32.4608 0 1 0 64.896 0 32.4608 32.4608 0 0 0-64.896 0zM534.1952 709.9648a63.1552 63.1552 0 1 0 126.3104 0 63.1552 63.1552 0 0 0-126.3104 0zM650.24 435.2a32.4096 32.4096 0 1 0 64.8704 0 32.4352 32.4352 0 1 0-64.8704 0z" fill="#7AC4F4" p-id="16453"></path><path d="M873.8048 385.7152c-6.8096-11.9552-13.6448-22.1952-20.4544-34.1504-40.9856-68.2752-98.9952-119.4752-165.5552-150.1952 0 0-1.7152 0-1.7152-1.7152-6.8352-3.4048-15.36-6.8352-23.8848-10.24C622.9504 172.3648 563.2 134.8352 554.6496 92.16c0 0-6.8096 39.2448-27.2896 69.9648l-6.8096 10.24c-34.1248 44.3648-85.3248 85.3248-158.72 128C307.2 332.8 254.2848 354.9952 206.5152 366.9248c-69.9648 18.7648-85.3248 5.12-85.3248 5.12 25.5744 18.7904 11.9296 93.8752 11.9296 93.8752-17.0752 75.0848-13.6704 153.6 13.6448 228.6848a398.08 398.08 0 0 0 35.84 83.6608c76.8 134.8096 215.04 209.8944 356.6848 209.8944 64.8448 0 131.4304-15.36 191.1552-49.5104 189.4656-109.2096 254.3104-356.6848 143.36-552.9344zM677.5552 819.2C640 914.7648 489.8048 947.2 435.2 955.7504 337.92 928.4352 250.88 863.5648 196.2752 768a314.112 314.112 0 0 1-29.0304-64.8448 386.56 386.56 0 0 1 13.6704-228.7104c1.6896-1.6896 1.6896-3.4048 3.4048-3.4048 5.12-3.4048 13.6448-1.6896 15.36 5.12 1.7152 1.6896 1.7152 3.4048 1.7152 5.12s-1.7152 6.8352-1.7152 8.5248c0 1.7152-1.7152 6.8352-1.7152 6.8352-3.4048 13.6448-1.7152 27.3152 5.12 40.96 15.36 27.2896 51.2 39.2448 78.5152 23.9104s39.2448-51.2 23.8848-78.5152c-6.8096-13.6704-18.7648-22.1952-32.4096-27.3152h-3.4048c-1.6896 0-3.4048-1.6896-5.12-1.6896a44.7232 44.7232 0 0 1-27.3152-22.1952c-11.9552-20.48-5.12-46.08 11.9552-61.44H250.88c44.3648-23.9104 102.4-8.5248 126.3104 37.5296 11.9552 22.1952 13.6448 46.08 8.5248 68.2752-1.7152 3.4048-3.4304 13.6448-3.4304 13.6448-6.8352 25.6-3.4048 52.9152 10.24 78.5152 29.0048 52.8896 95.5648 73.3696 148.4544 44.3648C593.92 583.68 614.4 517.12 585.3952 464.2048c-13.6448-25.6-35.84-42.6752-59.7504-51.2 0 0-10.24-3.4048-13.6448-3.4048-22.1952-6.8352-40.96-22.1952-52.9152-44.3648-23.8848-44.3648-8.5248-102.4 37.5552-126.2848h1.7152c22.1952-6.8352 46.08 1.6896 58.0352 23.8848 6.8352 11.9552 6.8352 23.9104 5.12 35.84 0 1.7152-1.6896 3.4048-1.6896 5.12 0 1.6896 0 1.6896-1.7152 3.4048-3.4304 13.6448-1.6896 27.3152 5.12 40.96 15.36 27.2896 51.2 39.2448 78.4896 23.8848s39.2448-51.2 23.9104-78.4896c-6.8352-13.6704-18.7648-22.1952-32.4352-27.3152 0 0-5.12-1.6896-6.8352-1.6896S619.52 261.12 619.52 261.12c-1.7152-1.7152-3.4304-1.7152-3.4304-5.12-3.4048-5.12-1.6896-13.6448 5.12-15.36 1.7152 0 3.4304-1.6896 5.12-1.6896 73.3952 15.36 141.6448 52.8896 194.56 107.52 13.6448 17.0752 25.6 35.84 37.5552 54.6048 54.6048 97.28 64.8448 208.2048 35.84 307.2-78.4896-20.48-172.3648-1.7152-216.7296 110.9248z" fill="#2C9DE2" p-id="16454"></path><path d="M361.8048 274.7648c114.3552-69.9648 182.6048-163.84 153.6-211.6352S370.3552 34.1248 256 102.4s-182.6048 163.84-153.6 211.6352 145.0752 30.72 259.4048-39.2704z m-209.92-8.5248c-17.0752-29.0048 39.2704-92.16 122.88-138.24s165.5552-61.44 182.6048-30.72c17.0752 29.0048-39.2448 92.16-122.88 138.24C250.88 281.6 168.96 295.2448 151.8848 266.24z" fill="#FB7E00" p-id="16455"></path></svg>