<?xml version="1.0" standalone="no"?><!DOCTYPE svg PUBLIC "-//W3C//DTD SVG 1.1//EN" "http://www.w3.org/Graphics/SVG/1.1/DTD/svg11.dtd"><svg t="1614927929862" class="icon" viewBox="0 0 1024 1024" version="1.1" xmlns="http://www.w3.org/2000/svg" p-id="4149" xmlns:xlink="http://www.w3.org/1999/xlink" width="200" height="200"><defs><style type="text/css"></style></defs><path d="M724.48 593.28c-7.68 0-15.36-3.2-20.48-8.32-5.76-5.76-8.32-12.8-8.32-20.48 0-7.68 3.2-15.36 8.32-20.48 5.76-5.76 12.8-8.32 20.48-8.32 16 0 29.44 12.8 29.44 29.44 0 14.72-13.44 28.16-29.44 28.16z m0-43.52c-3.84 0-7.04 1.28-10.24 3.84-2.56 2.56-3.84 6.4-3.84 10.24 0 3.84 1.28 7.04 3.84 10.24 2.56 2.56 6.4 3.84 10.24 3.84 7.68 0 14.08-6.4 14.08-14.08 0-7.68-6.4-14.08-14.08-14.08z" fill="#1296db" p-id="4150"></path><path d="M181.76 974.08c-4.48 0-7.68-3.2-7.68-7.68L173.44 57.6c0-4.48 3.2-7.68 7.68-7.68l660.48-0.64c1.92 0 3.84 0.64 5.12 1.92 1.28 1.28 1.92 3.2 1.92 5.12l0.64 908.8c0 1.92-0.64 3.84-1.92 5.12-1.28 1.28-3.2 1.92-5.12 1.92l-660.48 1.92z m7.04-908.8l0.64 893.44 645.12-0.64-0.64-893.44-645.12 0.64z" fill="#1296db" p-id="4151"></path><path d="M225.28 974.08c-1.92 0-3.84-0.64-5.12-1.92-1.28-1.28-1.92-3.2-1.92-5.12l-1.28-865.92c0-4.48 3.2-7.68 7.68-7.68l573.44-0.64c4.48 0 7.68 3.2 7.68 7.68L806.4 966.4c0 1.92-0.64 3.84-1.92 5.12-1.28 1.28-3.2 1.92-5.12 1.92l-574.08 0.64zM232.32 108.8l0.64 850.56 558.72-0.64-0.64-850.56-558.72 0.64z" fill="#1296db" p-id="4152"></path><path d="M64.64 974.08c-4.48 0-7.68-3.2-7.68-7.68s3.2-7.68 7.68-7.68l894.72-0.64c4.48 0 7.68 3.2 7.68 7.68s-3.2 7.68-7.68 7.68l-894.72 0.64z" fill="#1296db" p-id="4153"></path><path d="M510.72 538.88c-23.04 0-44.16-8.96-60.16-24.96s-24.96-37.76-24.96-60.16c0-23.04 8.96-44.16 24.96-60.8 16-16 37.76-24.96 60.16-24.96 23.04 0 44.16 8.96 60.16 24.96s24.96 37.76 24.96 60.16c0 23.04-8.96 44.16-24.96 60.8-16 16-37.12 24.96-60.16 24.96z m0-144c-16 0-30.72 6.4-41.6 17.28-10.88 10.88-17.28 25.6-17.28 41.6s6.4 30.72 17.28 41.6c10.88 10.88 25.6 17.28 41.6 17.28s30.72-6.4 41.6-17.28c10.88-10.88 17.28-25.6 17.28-41.6s-6.4-30.72-17.28-41.6c-11.52-11.52-26.24-17.28-41.6-17.28z" fill="#1296db" p-id="4154"></path><path d="M460.8 519.04c-3.2 0-7.04-1.28-9.6-3.84-5.12-5.12-5.12-13.44 0-19.2l101.76-102.4c5.12-5.12 13.44-5.12 19.2 0 5.12 5.12 5.12 13.44 0 19.2l-101.76 102.4c-3.2 2.56-6.4 3.84-9.6 3.84z" fill="#1296db" p-id="4155"></path><path d="M224.64 317.44c-7.68 0-13.44-5.76-13.44-13.44V217.6c0-7.68 5.76-13.44 13.44-13.44 7.68 0 13.44 5.76 13.44 13.44v86.4c0 7.68-5.76 13.44-13.44 13.44zM225.28 862.72c-7.68 0-13.44-5.76-13.44-13.44v-86.4c0-7.68 5.76-13.44 13.44-13.44 7.68 0 13.44 5.76 13.44 13.44v86.4c0 7.68-6.4 13.44-13.44 13.44z" fill="#1296db" p-id="4156"></path><path d="M357.12 322.56c-2.56 0-5.12-1.92-5.12-5.12v-134.4c0-2.56 1.92-5.12 5.12-5.12h9.6c2.56 0 5.12 1.92 5.12 5.12v121.6h57.6c2.56 0 5.12 1.92 5.12 5.12v8.32c0 2.56-1.92 5.12-5.12 5.12l-72.32-0.64zM552.32 322.56c-1.92 0-3.84-1.28-4.48-3.2l-14.72-42.88H486.4l-14.72 42.88c-0.64 1.92-2.56 3.2-4.48 3.2h-9.6c-1.28 0-3.2-0.64-3.84-1.92-0.64-1.28-1.28-3.2-0.64-4.48l47.36-134.4c0.64-1.92 2.56-3.2 4.48-3.2h9.6c1.92 0 3.84 1.28 4.48 3.2l47.36 134.4c0.64 1.28 0 3.2-0.64 4.48-0.64 1.28-2.56 1.92-3.84 1.92h-9.6z m-24.96-64l-6.4-18.56c-3.84-11.52-7.68-21.76-10.88-32.64-3.2 10.88-6.4 21.12-10.88 32.64l-6.4 18.56h34.56zM588.8 321.92c-2.56 0-5.12-1.92-5.12-5.12v-134.4c0-2.56 1.92-5.12 5.12-5.12h36.48c32 0 49.28 13.44 49.28 37.76 0 12.16-5.76 22.4-15.36 28.8 14.72 5.76 23.68 17.92 23.68 33.92 0 27.52-20.48 44.16-55.04 44.16H588.8z m36.48-17.28c25.6 0 38.4-8.96 38.4-26.88 0-16-12.8-23.68-38.4-23.68h-22.4v50.56h22.4z m-3.84-67.2c30.08 0 33.92-10.88 33.92-21.76 0-8.96-3.84-19.84-33.28-19.84h-19.2v41.6h18.56z" fill="#1296db" p-id="4157"></path></svg>