<?xml version="1.0" standalone="no"?><!DOCTYPE svg PUBLIC "-//W3C//DTD SVG 1.1//EN" "http://www.w3.org/Graphics/SVG/1.1/DTD/svg11.dtd"><svg t="1615345254035" class="icon" viewBox="0 0 1024 1024" version="1.1" xmlns="http://www.w3.org/2000/svg" p-id="2100" xmlns:xlink="http://www.w3.org/1999/xlink" width="200" height="200"><defs><style type="text/css"></style></defs><path d="M402.45 720.72l318.27-318.27c62.9 24.63 137.13 11.62 187.95-39.2 50.25-50.25 63.6-123.41 40.08-185.85-3.56-9.44-15.88-11.88-23.02-4.75l-75.74 75.74a14.014 14.014 0 0 1-7.92 3.96l-63.67 9.1c-9.24 1.32-17.16-6.6-15.84-15.84l9.1-63.67c0.43-3 1.82-5.78 3.96-7.92l75.74-75.74c7.13-7.13 4.69-19.46-4.75-23.02C784.16 51.73 711 65.08 660.75 115.33c-50.82 50.82-63.83 125.05-39.2 187.95L303.28 621.55c-62.9-24.63-137.13-11.62-187.95 39.2C65.08 711 51.73 784.16 75.25 846.6c3.56 9.44 15.88 11.88 23.02 4.75l75.74-75.74c2.14-2.14 4.92-3.53 7.92-3.96l63.67-9.1c9.24-1.32 17.16 6.6 15.84 15.84l-9.1 63.67c-0.43 3-1.82 5.78-3.96 7.92l-75.74 75.74c-7.13 7.13-4.69 19.46 4.75 23.02 62.44 23.52 135.6 10.17 185.85-40.08 50.83-50.81 63.84-125.04 39.21-187.94z" fill="#8C9EFF" p-id="2101"></path><path d="M718.66 739.66c-5.36 0-10.72-2.04-14.82-6.12l-0.01-0.01-0.01-0.01-446.26-446.26a20.941 20.941 0 0 1-6.15-15.01c0.04-5.32 2.09-10.63 6.15-14.69 8.2-8.2 21.49-8.2 29.7 0l446.25 446.26 0.01 0.01c0 0.01 0.01 0.01 0.01 0.01v0.01c8.18 8.2 8.16 21.48-0.03 29.67-0.22 0.23-0.45 0.44-0.68 0.66v0.01a20.918 20.918 0 0 1-11.48 5.32c-0.89 0.1-1.78 0.15-2.68 0.15z" fill="#FFD600" p-id="2102"></path><path d="M258.79 184.42l-88.05-88.05c-5.47-5.47-14.33-5.47-19.8 0l-54.58 54.58c-5.47 5.47-5.47 14.33 0 19.8l88.05 88.05c0.81 0.81 1.72 1.52 2.7 2.11l51.13 30.68a13.98 13.98 0 0 0 17.1-2.11l34.13-34.13a14.007 14.007 0 0 0 2.11-17.1l-30.68-51.13c-0.59-0.99-1.3-1.89-2.11-2.7z" fill="#E1F5FF" p-id="2103"></path><path d="M817.83 718.66l-37.19-61.98-123.96 123.96 61.98 37.19L817.83 917c27.38 27.38 71.78 27.38 99.17 0 27.38-27.38 27.38-71.78 0-99.17l-99.17-99.17z" fill="#313FA0" p-id="2104"></path></svg>