<?xml version="1.0" standalone="no"?><!DOCTYPE svg PUBLIC "-//W3C//DTD SVG 1.1//EN" "http://www.w3.org/Graphics/SVG/1.1/DTD/svg11.dtd"><svg t="1614928092708" class="icon" viewBox="0 0 1024 1024" version="1.1" xmlns="http://www.w3.org/2000/svg" p-id="5496" xmlns:xlink="http://www.w3.org/1999/xlink" width="200" height="200"><defs><style type="text/css"></style></defs><path d="M814.216 317.927h-27.432l28.091-25.02c3.841-3.719 6.004-8.706 6.004-13.976 0-5.214-2.162-10.257-6.004-13.921L611.692 70.28c-8.037-7.692-21.071-7.692-29.081 0l-49.955 47.192-113.973-50.628c-9.847-5.409-22.353-2.169-28.035 7.184l-152.489 243.9c10.238-0.46 14.881-0.245 20.648 0h-48.081c-56.729 0-109.722 27.247-109.722 81.599v411.301c0 54.383 46.136 98.618 102.865 98.618h617.23c56.701 0 102.868-44.235 102.868-98.618V399.527c0-54.354-53.022-81.6-109.751-81.6zM597.124 112.093l174.08 166.838-39.284 38.995H375.316l221.808-205.833z m-181.183-1.295l78.041 43.206-173.526 163.923h-27.433l122.918-207.129z m471.412 712.168c0 31.845-28.034 42.78-62.492 42.78h-624.78c-34.457 0-62.489-10.935-62.489-42.78V404.402c0-31.812 28.032-42.772 62.489-42.772H824.86c34.457 0 62.491 10.959 62.491 42.772v418.565h0.002v-0.001z" fill="#d81e06" p-id="5497"></path><path d="M690.966 486.538c-52.943 0-96.008 44.295-96.008 98.734 0 54.439 43.065 98.734 96.008 98.734 52.914 0 96.009-44.295 96.009-98.734 0-54.439-43.095-98.734-96.009-98.734z m-0.026 164.911c-35.327 0-64.11-29.5-64.11-65.749 0-36.289 28.781-65.812 64.11-65.812 35.326 0 64.11 29.49 64.11 65.812-0.002 36.249-28.784 65.749-64.11 65.749z" fill="#d81e06" p-id="5498"></path></svg>