<?xml version="1.0" standalone="no"?><!DOCTYPE svg PUBLIC "-//W3C//DTD SVG 1.1//EN" "http://www.w3.org/Graphics/SVG/1.1/DTD/svg11.dtd"><svg t="1614928234444" class="icon" viewBox="0 0 1024 1024" version="1.1" xmlns="http://www.w3.org/2000/svg" p-id="6084" xmlns:xlink="http://www.w3.org/1999/xlink" width="200" height="200"><defs><style type="text/css"></style></defs><path d="M445.320533 448.298667a21.333333 21.333333 0 0 0-30.165333 0L327.133867 536.32a21.333333 21.333333 0 0 0-4.565334 23.253333 20.992 20.992 0 0 0 20.565334 17.578667h295.082666a21.333333 21.333333 0 1 0 0-42.666667H389.2992l56.021333-56.021333a21.333333 21.333333 0 0 0 0-30.165333M680.925867 662.954667a64 64 0 1 0 0 128 64 64 0 0 0 0-128" p-id="6085" fill="#1afa29"></path><path d="M680.8832 833.621333a106.794667 106.794667 0 0 1-106.666667-106.666666c0-58.794667 47.829333-106.666667 106.666667-106.666667 58.88 0 106.666667 47.872 106.666667 106.666667s-47.786667 106.666667-106.666667 106.666666m0-256c-40.533333 0-77.226667 16.341333-104.192 42.666667H345.7792a21.333333 21.333333 0 0 0 0 42.666667h200.746667a147.797333 147.797333 0 0 0-14.933334 64c0 82.346667 66.986667 149.333333 149.333334 149.333333s149.333333-66.986667 149.333333-149.333333-66.986667-149.333333-149.333333-149.333334" p-id="6086" fill="#1afa29"></path><path d="M846.600533 494.848L507.1872 176.256A21.205333 21.205333 0 0 0 490.6752 170.752a21.248 21.248 0 0 0-16.512 5.504L134.749867 494.848a21.290667 21.290667 0 1 0 29.184 31.104l9.6-8.96v279.765333A100.138667 100.138667 0 0 0 273.757867 896.64h193.792a21.333333 21.333333 0 1 0 0-42.666667H273.757867a57.472 57.472 0 0 1-57.6-57.216V476.928L490.6752 219.264l326.741333 306.688a21.12 21.12 0 0 0 30.122667-0.938667 21.290667 21.290667 0 0 0-0.938667-30.165333" p-id="6087" fill="#1afa29"></path></svg>