<?xml version="1.0" standalone="no"?><!DOCTYPE svg PUBLIC "-//W3C//DTD SVG 1.1//EN" "http://www.w3.org/Graphics/SVG/1.1/DTD/svg11.dtd"><svg t="1614305724319" class="icon" viewBox="0 0 1024 1024" version="1.1" xmlns="http://www.w3.org/2000/svg" p-id="17207" xmlns:xlink="http://www.w3.org/1999/xlink" width="200" height="200"><defs><style type="text/css"></style></defs><path d="M525.5 943.58c-81.04 0-159.21-23.92-226.06-69.17C188.14 799.1 121.69 674 121.69 539.77c0-57.18 11.71-112.44 34.81-164.26 22.31-50.05 54.07-94.4 94.41-131.82 8.1-7.51 20.75-7.04 28.26 1.06 7.51 8.1 7.04 20.75-1.06 28.26-36.35 33.73-64.98 73.69-85.08 118.78-20.8 46.66-31.35 96.45-31.35 147.97 0 120.93 59.88 233.65 160.17 301.52 60.21 40.75 130.62 62.29 203.64 62.29 73.02 0 143.43-21.54 203.64-62.29C829.42 773.41 889.3 660.69 889.3 539.76c0-97.18-37.84-188.54-106.56-257.25-68.72-68.72-160.08-106.56-257.25-106.56-43.36 0-85.77 7.55-126.06 22.43-10.36 3.83-21.86-1.47-25.69-11.83s1.47-21.86 11.83-25.69c44.74-16.53 91.81-24.91 139.92-24.91 54.5 0 107.39 10.68 157.19 31.74 48.09 20.34 91.27 49.45 128.35 86.53s66.19 80.26 86.53 128.35c21.06 49.8 31.74 102.68 31.74 157.19 0 134.22-66.45 259.33-177.75 334.64-66.84 45.26-145.01 69.18-226.05 69.18z" fill="#1296db" p-id="17208"></path><path d="M318.52 236.52c-6.58 0-13.03-3.25-16.85-9.2-5.97-9.3-3.27-21.67 6.03-27.63 2.4-1.54 4.86-3.08 7.32-4.59 9.42-5.77 21.73-2.8 27.5 6.62s2.8 21.73-6.62 27.5c-2.22 1.36-4.44 2.75-6.6 4.13a19.931 19.931 0 0 1-10.78 3.17zM525.5 518.66c-58.94 0-106.9-47.96-106.9-106.9s47.96-106.9 106.9-106.9 106.9 47.96 106.9 106.9-47.95 106.9-106.9 106.9z m0-173.8c-36.89 0-66.9 30.01-66.9 66.9s30.01 66.9 66.9 66.9 66.9-30.01 66.9-66.9-30.01-66.9-66.9-66.9z m0 598.72c-81.04 0-159.21-23.92-226.06-69.17a20.01 20.01 0 0 1-8.54-19.73c13.25-82.48 42.56-157.16 82.53-210.28 20.65-27.45 43.75-48.91 68.67-63.81 26.61-15.91 54.67-23.97 83.4-23.97 28.73 0 56.8 8.06 83.4 23.97 24.91 14.89 48.02 36.36 68.67 63.81 39.97 53.13 69.28 127.81 82.53 210.28 1.23 7.68-2.1 15.38-8.54 19.73-66.85 45.25-145.02 69.17-226.06 69.17z m-192.91-95.3c57.77 36.22 124.19 55.3 192.91 55.3s135.14-19.08 192.91-55.3c-13.06-71.03-38.7-134.51-72.8-179.83-44.66-59.37-89.97-71.83-120.1-71.83-30.14 0-75.44 12.46-120.1 71.83-34.12 45.32-59.76 108.8-72.82 179.83z" fill="#1296db" p-id="17209"></path><path d="M393.86 835.87c29.88 17.88 81 27.72 131.64 27.72 42.91 0 84.8-8.35 123.73-24.46 14.25-5.9 21.64-21.63 17.24-36.41-12.86-43.19-30.93-81.11-52.82-110.21l-0.08-0.11c-6.16-8.18-18.03-9.12-25.49-2.11-35.14 33.03-64.58 56.9-106.6 80.19-24.94 13.83-60.91 31.61-87.02 43.06-11.53 5.04-8.12 17.82-0.6 22.33z" fill="#1296db" p-id="17210"></path><path d="M857.38 742.88c-8.5 0-16.38-5.46-19.07-13.99-17.92-56.86-44.13-104.43-75.8-137.58-30.89-32.33-65.87-49.42-101.16-49.42-11.05 0-20-8.95-20-20s8.95-20 20-20c36.89 0 66.9-30.01 66.9-66.9s-30.01-66.9-66.9-66.9c-11.05 0-20-8.95-20-20s8.95-20 20-20c58.94 0 106.9 47.96 106.9 106.9 0 33.21-15.23 62.94-39.06 82.56 21.94 10.39 42.89 25.87 62.25 46.12 35.88 37.55 65.28 90.52 85.03 153.19 3.32 10.53-2.53 21.77-13.06 25.09-2.02 0.63-4.04 0.93-6.03 0.93z m-667.09 0c-1.99 0-4.02-0.3-6.02-0.93-10.53-3.32-16.38-14.55-13.06-25.09 19.75-62.67 49.15-115.64 85.03-153.19 19.35-20.26 40.31-35.73 62.25-46.12-23.84-19.62-39.06-49.35-39.06-82.56 0-58.94 47.96-106.9 106.9-106.9 11.05 0 20 8.95 20 20s-8.95 20-20 20c-36.89 0-66.9 30.01-66.9 66.9s30.01 66.9 66.9 66.9c11.05 0 20 8.95 20 20s-8.95 20-20 20c-35.29 0-70.27 17.09-101.16 49.42-31.67 33.15-57.88 80.72-75.8 137.58-2.7 8.53-10.58 13.99-19.08 13.99z" fill="#1296db" p-id="17211"></path></svg>