<?xml version="1.0" standalone="no"?><!DOCTYPE svg PUBLIC "-//W3C//DTD SVG 1.1//EN" "http://www.w3.org/Graphics/SVG/1.1/DTD/svg11.dtd"><svg t="1614320616551" class="icon" viewBox="0 0 1024 1024" version="1.1" xmlns="http://www.w3.org/2000/svg" p-id="2385" xmlns:xlink="http://www.w3.org/1999/xlink" width="200" height="200"><defs><style type="text/css"></style></defs><path d="M965.938201 944.125923h-301.055337a38.092716 38.092716 0 1 0 0 76.083033h302.693734a35.737521 35.737521 0 0 0 35.942321-33.791926 20.479955 20.479955 0 0 0 0-3.379193 38.399916 38.399916 0 0 0-37.580718-38.911914z" fill="#40C577" p-id="2386"></path><path d="M817.253728 337.919257A344.370442 344.370442 0 0 0 474.316883 0h-4.915189a341.298449 341.298449 0 0 0-337.919257 337.919257A330.956072 330.956072 0 0 0 307.200451 634.878603 458.546191 458.546191 0 0 0 20.481081 978.327448 38.502315 38.502315 0 0 0 49.869817 1023.997747H59.495396a37.478318 37.478318 0 0 0 37.273518-30.719932A389.119144 389.119144 0 0 1 470.016092 680.958502h7.987183A343.756044 343.756044 0 0 0 817.253728 337.919257z m-76.083032 0a268.28741 268.28741 0 0 1-262.757822 266.956212h-11.263975A270.233005 270.233005 0 0 1 207.872669 348.159234v-9.523179a266.853813 266.853813 0 0 1 533.707626 0z" fill="#262626" p-id="2387"></path><path d="M661.094072 867.735691h304.946529a38.092716 38.092716 0 0 0 0-76.185432H661.094072a38.092716 38.092716 0 0 0 0 76.185432zM737.279504 680.856102h3.583993H737.279504a35.839921 35.839921 0 0 0 33.689526 37.785517h194.559572a37.990316 37.990316 0 0 0 0-75.980633H775.269821A38.092716 38.092716 0 0 0 737.279504 680.856102z" fill="#40C577" p-id="2388"></path></svg>