<?xml version="1.0" standalone="no"?><!DOCTYPE svg PUBLIC "-//W3C//DTD SVG 1.1//EN" "http://www.w3.org/Graphics/SVG/1.1/DTD/svg11.dtd"><svg t="1614320684561" class="icon" viewBox="0 0 1024 1024" version="1.1" xmlns="http://www.w3.org/2000/svg" p-id="4732" xmlns:xlink="http://www.w3.org/1999/xlink" width="200" height="200"><defs><style type="text/css"></style></defs><path d="M310.857143 274.285714h475.428571c40.228571 0 73.142857 32.914286 73.142857 73.142857v475.428572c0 40.228571-32.914286 73.142857-73.142857 73.142857h-475.428571c-40.228571 0-73.142857-32.914286-73.142857-73.142857v-475.428572c0-40.228571 32.914286-73.142857 73.142857-73.142857z" fill="#F0FAED" p-id="4733"></path><path d="M738.742857 950.857143H285.257143C186.514286 950.857143 109.714286 874.057143 109.714286 775.314286V321.828571C109.714286 223.085714 186.514286 146.285714 285.257143 146.285714h457.142857C837.485714 146.285714 914.285714 223.085714 914.285714 321.828571v457.142858c0 95.085714-76.8 171.885714-175.542857 171.885714zM285.257143 204.8C219.428571 204.8 164.571429 256 164.571429 321.828571v457.142858c0 65.828571 54.857143 117.028571 117.028571 117.028571h457.142857c65.828571 0 117.028571-54.857143 117.028572-117.028571V321.828571c0-65.828571-54.857143-117.028571-117.028572-117.028571H285.257143z" fill="#262626" p-id="4734"></path><path d="M394.971429 438.857143h91.428571c14.628571 0 29.257143 10.971429 29.257143 29.257143 0 14.628571-10.971429 29.257143-29.257143 29.257143h-91.428571c-14.628571 0-29.257143-10.971429-29.257143-29.257143s10.971429-29.257143 29.257143-29.257143zM394.971429 621.714286h237.714285c14.628571 0 29.257143 10.971429 29.257143 29.257143 0 14.628571-10.971429 29.257143-29.257143 29.257142h-237.714285c-14.628571 0-29.257143-10.971429-29.257143-29.257142s10.971429-29.257143 29.257143-29.257143z" fill="#14CC2D" p-id="4735"></path><path d="M457.142857 84.114286h109.714286c51.2 0 91.428571 40.228571 91.428571 91.428571s-40.228571 87.771429-91.428571 87.771429h-109.714286c-51.2 0-91.428571-40.228571-91.428571-87.771429 0-47.542857 40.228571-91.428571 91.428571-91.428571z" fill="#FFFFFF" p-id="4736"></path><path d="M566.857143 263.314286h-109.714286c-51.2 0-91.428571-40.228571-91.428571-87.771429s40.228571-91.428571 91.428571-91.428571h109.714286c51.2 0 91.428571 40.228571 91.428571 91.428571s-40.228571 87.771429-91.428571 87.771429z m-109.714286-124.342857c-21.942857 0-36.571429 14.628571-36.571428 36.571428s14.628571 36.571429 36.571428 36.571429h109.714286c21.942857 0 36.571429-14.628571 36.571428-36.571429s-14.628571-36.571429-36.571428-36.571428h-109.714286z" fill="#262626" p-id="4737"></path></svg>