<?xml version="1.0" standalone="no"?><!DOCTYPE svg PUBLIC "-//W3C//DTD SVG 1.1//EN" "http://www.w3.org/Graphics/SVG/1.1/DTD/svg11.dtd"><svg t="1614829929985" class="icon" viewBox="0 0 1024 1024" version="1.1" xmlns="http://www.w3.org/2000/svg" p-id="2067" xmlns:xlink="http://www.w3.org/1999/xlink" width="200" height="200"><defs><style type="text/css"></style></defs><path d="M471.936175 9.476439a31.743861 31.743861 0 0 1 45.247802 0l90.559604 91.519599a32.639857 32.639857 0 0 1 0 45.6958L517.119978 238.211438a31.743861 31.743861 0 0 1-45.247802 0 32.639857 32.639857 0 0 1 0-45.7598l33.407853-33.791852-7.679966 0.191999a383.99832 383.99832 0 1 0 300.094687 127.231443 31.99986 31.99986 0 1 1 47.615792-42.815812 447.99804 447.99804 0 1 1-334.526537-148.67135L471.936175 55.236238a32.639857 32.639857 0 0 1 0-45.759799z" p-id="2068"></path></svg>