<?xml version="1.0" standalone="no"?><!DOCTYPE svg PUBLIC "-//W3C//DTD SVG 1.1//EN" "http://www.w3.org/Graphics/SVG/1.1/DTD/svg11.dtd"><svg t="1614753824208" class="icon" viewBox="0 0 1024 1024" version="1.1" xmlns="http://www.w3.org/2000/svg" p-id="9383" xmlns:xlink="http://www.w3.org/1999/xlink" width="200" height="200"><defs><style type="text/css"></style></defs><path d="M512 512m-512 0a512 512 0 1 0 1024 0 512 512 0 1 0-1024 0Z" fill="#737BF2" p-id="9384"></path><path d="M770.304 606.08c-17.856 136.64-247.296 239.808-247.296 239.808S293.76 742.72 275.968 606.08c-17.92-136.576-3.008-300.48-3.008-300.48s82.368 15.168 131.008 0c78.08-24.384 119.04-60.736 119.04-60.736s41.088 36.352 119.232 60.736c48.64 15.168 131.072 0 131.072 0s14.912 163.904-3.008 300.48z m-111.04 16.192l-52.864-48.32c21.44-39.68 14.144-89.6-21.376-122.112a112.768 112.768 0 0 0-153.984 2.944c-41.6 41.28-40.256 106.88 3.136 146.56 37.312 34.112 93.44 37.76 134.976 11.904l51.584 47.232a28.8 28.8 0 0 0 39.36-0.768 25.6 25.6 0 0 0-0.832-37.44zM465.728 582.4a66.752 66.752 0 1 1 92.544-96.32A66.752 66.752 0 0 1 465.728 582.4z" fill="#FFFFFF" p-id="9385"></path></svg>