<?xml version="1.0" standalone="no"?><!DOCTYPE svg PUBLIC "-//W3C//DTD SVG 1.1//EN" "http://www.w3.org/Graphics/SVG/1.1/DTD/svg11.dtd"><svg t="1615269029565" class="icon" viewBox="0 0 1024 1024" version="1.1" xmlns="http://www.w3.org/2000/svg" p-id="5990" xmlns:xlink="http://www.w3.org/1999/xlink" width="200" height="200"><defs><style type="text/css"></style></defs><path d="M890.022 121C907.683 121 922 135.317 922 152.978c0 17.66-14.317 31.977-31.978 31.977H872v495.653c0 35.322-28.654 63.955-64 63.955H613.01l86.76 103.324c11.382 13.52 9.623 33.706-3.912 45.07-0.005 0.005-0.01 0.01-0.03-0.002l-3.05 2.557c-13.55 11.333-33.723 9.568-45.099-3.946L524.242 744.563h-25.219L375.587 891.566c-11.263 13.379-31.146 15.242-44.69 4.282l-0.408-0.336-3.05-2.557c-0.02 0.012-0.026 0.007-0.031 0.002-13.4-11.25-15.257-31.146-4.25-44.662l0.338-0.408 86.759-103.324H216c-35.346 0-64-28.633-64-63.955V184.955h-18.022c-17.661 0-31.978-14.317-31.978-31.977C102 135.317 116.317 121 133.978 121h756.044zM808 184.955H216v495.653h592V184.955zM356 459.763c18.778 0 34 15.211 34 33.976s-15.222 33.976-34 33.976-34-15.211-34-33.976 15.222-33.976 34-33.976z m317.022 1.998c17.661 0 31.978 14.317 31.978 31.978 0 17.66-14.317 31.978-31.978 31.978H471.978c-17.661 0-31.978-14.317-31.978-31.978 0-17.66 14.317-31.978 31.978-31.978h201.044zM353 337.848c18.778 0 34 15.212 34 33.976 0 18.765-15.222 33.977-34 33.977s-34-15.212-34-33.977c0-18.764 15.222-33.976 34-33.976z m320.022 1.999c17.661 0 31.978 14.317 31.978 31.977 0 17.661-14.317 31.978-31.978 31.978H471.978c-17.661 0-31.978-14.317-31.978-31.978 0-17.66 14.317-31.977 31.978-31.977h201.044z" p-id="5991" fill="#d81e06"></path></svg>