<?xml version="1.0" standalone="no"?><!DOCTYPE svg PUBLIC "-//W3C//DTD SVG 1.1//EN" "http://www.w3.org/Graphics/SVG/1.1/DTD/svg11.dtd"><svg t="1614914760040" class="icon" viewBox="0 0 1024 1024" version="1.1" xmlns="http://www.w3.org/2000/svg" p-id="4644" xmlns:xlink="http://www.w3.org/1999/xlink" width="200" height="200"><defs><style type="text/css"></style></defs><path d="M513.4 952.6l275.3-2.3s-13.8-220.8-202.5-255.2c-51.4-4.3-74-2.6-74-2.6v0.3c0.1 161 1.2 259.8 1.2 259.8z" fill="#FFFFFF" p-id="4645"></path><path d="M510 952.6l-274.2-2.3s13.7-221 201.7-255.4c51.2-4.3 73.6-2.6 73.6-2.6v0.3c0 161.2-1.1 260-1.1 260z" fill="#E1E6F7" p-id="4646"></path><path d="M408 599.1h192.6v149.4s-47.5 74.9-95.7 74.9c-48.1 0-96.9-74.9-96.9-74.9V599.1z" fill="#FFDDB8" p-id="4647"></path><path d="M408 731.5V582.1h192.6v81.5" fill="#E5C6A5" p-id="4648"></path><path d="M410 646.7c17.2 29 4.2 71.5 20.6 96.1 16.5 24.6 49.3 42.3 77.2 68.2-36.7 17.1-97.7 5.7-124.7-39.7-27-45.4-9.8-107.6 26.9-124.6z" fill="#C74A4A" p-id="4649"></path><path d="M482.8 780.3h54.4c12.5 0 22.7 10.1 22.7 22.7l-6.8 24.9c0 12.5-16 22.7-24.5 22.7h-37.1c-8.5 0-24.5-10.1-24.5-22.7l-6.8-24.9c-0.1-12.5 10.1-22.7 22.6-22.7z" fill="#E25656" p-id="4650"></path><path d="M505.8 823.4c-16.5 3.1-26.9 25.1-32.1 45.3-6.6 25.8-10.3 56.3-13.2 82.6 33.4 0 42.6 0 77.1 0.4 12.1-28.7 14.9-64.6-0.5-98.9-7.6-17.1-17.6-32-31.3-29.4zM603.3 646.7c-17.2 28.9-4.2 71.4-20.7 96-16.5 24.5-49.4 42.2-77.3 68.1 36.8 17 109.1-5.5 136.2-50.8 27-45.4-1.5-96.3-38.2-113.3z" fill="#E25656" p-id="4651"></path><path d="M511.9 170.7c-131.1 0-226.3 107.9-226.3 241 0 44.7 11.4 122.4 31.2 158.2 39.1 70.8 164.9 88.9 195.4 90.2 0.1-127.9-0.3-323.3-0.3-489.4z" fill="#F5D4B1" p-id="4652"></path><path d="M512.5 170.7c131.1 0 226.4 107.9 226.4 241 0 44.7-11.4 122.4-31.2 158.2-39.2 70.8-165 88.9-195.5 90.2 0-128 0.3-323.3 0.3-489.4z" fill="#FFDDB8" p-id="4653"></path><path d="M569.1 66.5l-50.3 54.4s-146.2-2.9-222.1 88.4C226.2 294 266.4 448 281.3 463.1c-1.1-6.8 37 9.2 33.8-2.3-31.8-113.5 83.9-41.4 167.1-61.2 114.6-27.3 184.9-74 198.9-61.2 34.5 38.5 32 138.2 32 138.2s65.5-53.6 59.4-151.8c-4.2-67.4-50.7-135.2-84.5-156.4-33.9-21.2-58.3-31.5-86.8-36.3 6-9.8 9.2-34 9.2-34l-36.6 22.7-4.7-54.3z" fill="#333333" p-id="4654"></path><path d="M762.3 405.3c15.3 5.2 19.7 33.2 9.9 62.5-9.9 29.4-30.3 49-45.6 43.8-15.3-5.2-19.7-33.2-9.9-62.5s30.2-48.9 45.6-43.8z" fill="#FFDDB8" p-id="4655"></path><path d="M265.7 408.6c-15.3 5.2-19.7 33.6-9.9 63.4 9.9 29.8 30.3 49.6 45.6 44.4 15.3-5.2 19.7-33.6 9.9-63.4-9.9-29.7-30.3-49.6-45.6-44.4z" fill="#F5D4B1" p-id="4656"></path><path d="M496.2 823.7c-13.5 3.2-22 25.1-26.2 45.4-5.3 25.7-8.3 55.9-10.7 82.2 19.7 0.1 23.5 0.1 38.2-0.2 22.8-31.3 39.6-64.4 37.4-100.4-1.1-18.4-27.5-29.6-38.7-27z" fill="#C74A4A" p-id="4657"></path></svg>