<?xml version="1.0" standalone="no"?><!DOCTYPE svg PUBLIC "-//W3C//DTD SVG 1.1//EN" "http://www.w3.org/Graphics/SVG/1.1/DTD/svg11.dtd"><svg t="1614914672255" class="icon" viewBox="0 0 1024 1024" version="1.1" xmlns="http://www.w3.org/2000/svg" p-id="3347" xmlns:xlink="http://www.w3.org/1999/xlink" width="200" height="200"><defs><style type="text/css"></style></defs><path d="M354 224.1c0 70.7 57.3 128 128 128s128-57.3 128-128-57.3-128-128-128-128 57.3-128 128z" fill="#FFB74D" p-id="3348"></path><path d="M738 514.5S667.6 363 482 363 226 514.5 226 514.5v83.2h512v-83.2z" fill="#607D8B" p-id="3349"></path><path d="M523.9 419.3c2.1-4.3 2.3-8.7 0.6-13.4-1.7-4.6-4.3-9.1-7.7-13.4-3.4-4.2-7.5-8.9-12.3-13.8 0 0-2.8-0.2-6.6-1.3-10.9-3.9-22.7-3.9-33.8-0.1-3.8 1.1-6.6 1.4-6.6 1.4-4.7 4.9-8.5 9.6-11.2 13.8-2.7 3.6-4.9 7.5-6.6 11.8s-1.6 8.2 0.5 11.7c4.7 9.9 8.9 18.7 12.3 26.1 3.4 7.5 7.1 13.4 11.2 17.6-1.4 6.4-3.4 15.5-6.2 27.2-2.7 11.8-5.2 23.8-7.6 36.3-2.4 12.4-4.4 24.2-6.2 35.2-1.7 11-2.5 19.4-2.5 25 0 3.6 1.5 7.8 4.6 12.8s6.7 10.1 10.7 15.5c4.1 5.3 8.4 9.8 12.8 13.4 4.4 3.6 8.4 5.3 11.8 5.3s7.5-1.8 12.2-5.3c4.8-3.6 9.4-7.6 13.8-12.3 4.4-4.6 8.2-9.6 11.2-14.9 3.1-5.3 4.6-9.8 4.6-13.3 0-4.3-1-11.6-3-21.9-2.1-10.3-4.3-21.9-6.7-34.7-2.3-12.8-4.9-25.3-7.7-37.4-2.7-12.1-5.1-21.7-7.1-28.8 4.1-3.6 8-8.7 11.7-15.5 3.8-6.5 8.4-15.6 13.8-27z" fill="#FFFFFF" p-id="3350"></path><path d="M844.7 491H119.3L98 576.3l106.7 64-42.7-64h640l-42.7 64 106.7-64-21.3-85.3z" fill="#B0BEC5" p-id="3351"></path><path d="M162 576.3h640l-85.3 256H247.3l-85.3-256z" fill="#78909C" p-id="3352"></path><path d="M871.6 958l-293.4 1c-1.4 0-2.5-1.4-2.5-3.2l-1-374.5c0-1.8 1.1-3.2 2.5-3.2l201.8-0.7c0.5 0 59.2-0.5 59.6-0.1l34.6 42.8c0.6 0.6 0.1 48.2 0.1 49.2l0.7 285.4c0.1 1.8-1.1 3.2-2.4 3.3z" fill="#BBDEFB" p-id="3353"></path><path d="M863.8 626.2l-33.4 0.5-0.5-38.5 33.9 38z" fill="#E1F5FE" p-id="3354"></path><path d="M666.3 702.9h-35.7v-35.7h35.7v35.7z m148.5-35.7H703.4v35.7h111.4v-35.7zM666.3 774.8h-35.7v-35.7h35.7v35.7z m148.5-35.7H703.4v35.7h111.4v-35.7zM666.3 849.5h-35.7v-35.7h35.7v35.7z m110-35.6h-72.8v35.7h72.8v-35.7z" fill="#1976D2" p-id="3355"></path><path d="M751.4 768.7c0 48.3 39.1 87.4 87.3 87.4 48.3 0 87.4-39.1 87.4-87.3v-0.1c0-48.3-39.1-87.4-87.3-87.4-48.2 0-87.4 39.1-87.4 87.4z" fill="#43A047" p-id="3356"></path><path d="M848.2 722.1c-0.1-0.3-1.9-7.5-9.2-11.5-3-1.6-6.6-2.5-10.7-2.5-3.1 0-5.4 0.5-5.5 0.5l-1.2 0.3-31.8 79 2.5 34.9 27.3-23.9 28.8-76-0.2-0.8zM858.8 745.9h31v4.6h-31v-4.6z m-12.7 29.4h43.7v-4.6h-43.7v4.6z m-10 25.7h53.7v-4.6h-53.7v4.6z" fill="#FFFFFF" p-id="3357"></path><path d="M893.8 805h-61.7v-12.6h61.7V805z m0-25.7h-51.7v-12.6h51.7v12.6z m0-24.8h-39v-12.6h39v12.6z" fill="#FFFFFF" p-id="3358"></path></svg>