<?xml version="1.0" standalone="no"?><!DOCTYPE svg PUBLIC "-//W3C//DTD SVG 1.1//EN" "http://www.w3.org/Graphics/SVG/1.1/DTD/svg11.dtd"><svg t="1614914740263" class="icon" viewBox="0 0 1024 1024" version="1.1" xmlns="http://www.w3.org/2000/svg" p-id="3502" xmlns:xlink="http://www.w3.org/1999/xlink" width="200" height="200"><defs><style type="text/css"></style></defs><path d="M512 0a512 512 0 1 0 512 512A512 512 0 0 0 512 0z m-139.702857 343.405714l5.485714-3.657143 5.851429-3.291428c-8.411429-51.931429-6.217143-96.548571 25.234285-126.171429 25.234286-18.285714 69.485714-5.851429 109.714286-11.702857 115.565714-17.188571 114.834286 40.96 126.171429 140.068572h2.194285l5.485715 3.657142v6.582858a109.714286 109.714286 0 0 1-6.217143 42.422857 43.885714 43.885714 0 0 1-18.285714 22.308571 179.565714 179.565714 0 0 1-40.228572 76.068572 133.485714 133.485714 0 0 1-73.142857 36.571428H512a124.708571 124.708571 0 0 1-70.217143-36.571428 182.857143 182.857143 0 0 1-42.422857-77.897143 43.52 43.52 0 0 1-19.017143-22.308572 109.714286 109.714286 0 0 1-6.582857-43.154285z m380.342857 398.262857H270.994286c-23.771429 0-33.28-21.577143-33.28-44.982857 0-84.845714 162.377143-170.788571 162.377143-170.788571L475.428571 669.257143l13.897143-36.571429-21.577143-42.788571L512 548.571429l42.788571 42.788571-21.577142 42.788571 11.702857 34.011429 76.8-142.262857s163.474286 91.428571 163.474285 171.154286c1.097143 23.04-8.777143 44.617143-32.548571 44.617142zM416.548571 357.668571v-1.828571 4.022857z" p-id="3503" fill="#1296db"></path><path d="M412.525714 393.874286l6.948572 2.194285 1.828571 6.948572a162.011429 162.011429 0 0 0 36.571429 73.142857 98.377143 98.377143 0 0 0 53.394285 27.794286 107.154286 107.154286 0 0 0 56.32-29.988572 161.28 161.28 0 0 0 36.571429-70.948571v-6.582857l6.582857-2.194286a17.188571 17.188571 0 0 0 9.508572-10.605714 68.388571 68.388571 0 0 0 4.022857-20.48h-11.702857v3.291428l-1.828572-3.291428-2.56 9.142857v4.388571l-4.388571 15.725715a87.771429 87.771429 0 0 1-4.022857 12.434285 28.16 28.16 0 0 1-4.022858 6.948572 18.285714 18.285714 0 0 1-9.874285 6.217143 47.542857 47.542857 0 0 1-11.702857 0h-4.388572a77.897143 77.897143 0 0 1-14.994286 0 41.691429 41.691429 0 0 1-12.068571-4.388572 32.548571 32.548571 0 0 1-12.434286-12.434286 97.28 97.28 0 0 1-5.851428-11.702857l-11.702857-27.794285a31.451429 31.451429 0 0 0 8.777142 0H529.92a93.988571 93.988571 0 0 1 17.554286-3.657143 158.72 158.72 0 0 1 20.114285 0h24.137143l14.994286 1.828571V351.085714c0-8.777143-4.388571-54.491429-7.68-61.805714-9.874286 4.022857-21.211429-3.657143-31.451429-9.142857l-5.12 12.434286h-8.411428v-9.874286l-7.68 9.874286h-7.68l7.68-20.48c-40.96 28.16-109.714286 26.697143-120.685714 14.262857a20.114286 20.114286 0 0 0-2.56 6.582857c-1.828571 7.68-4.022857 54.857143-5.851429 62.537143h2.194286l16.457143-2.194286a175.542857 175.542857 0 0 1 21.211428 0 152.502857 152.502857 0 0 1 27.794286 2.56 118.125714 118.125714 0 0 1 14.994286 4.022857l8.411428 2.194286h3.657143l-10.971429 28.16a73.142857 73.142857 0 0 1-3.657142 8.045714 47.177143 47.177143 0 0 1-10.971429 13.897143 27.428571 27.428571 0 0 1-10.24 5.12 69.485714 69.485714 0 0 1-15.36 2.56H445.44l-6.582857-3.291429a19.017143 19.017143 0 0 1-9.508572-9.142857 48.274286 48.274286 0 0 1-4.022857-11.702857v-23.405714l-4.022857-2.56v-8.045714a33.645714 33.645714 0 0 0-16.091428 0 66.925714 66.925714 0 0 0 4.388571 20.845714 16.457143 16.457143 0 0 0 2.925714 11.337143z" p-id="3504" fill="#1296db"></path><path d="M612.205714 357.302857v3.291429h-5.12v2.194285zM436.297143 408.137143a14.262857 14.262857 0 0 0 3.657143 3.657143l3.291428 2.194285H458.24a62.902857 62.902857 0 0 0 17.188571-0.731428 24.137143 24.137143 0 0 0 10.971429-5.851429 33.645714 33.645714 0 0 0 5.851429-7.68 58.514286 58.514286 0 0 0 6.582857-16.091428 36.571429 36.571429 0 0 0 0-11.337143v-6.948572l-6.217143-3.291428a28.16 28.16 0 0 0-7.314286-2.194286 95.451429 95.451429 0 0 0-20.48-2.194286h-9.508571a79.36 79.36 0 0 0-13.897143 2.194286l-7.314286 1.828572v7.314285a27.428571 27.428571 0 0 0 0 3.291429 38.4 38.4 0 0 0 0 8.411428 109.714286 109.714286 0 0 0 2.194286 14.628572 31.085714 31.085714 0 0 0 0 12.8zM567.954286 357.668571H546.742857l-8.411428 2.194286-7.68 2.56v8.411429a39.131429 39.131429 0 0 0 0 9.874285 47.542857 47.542857 0 0 0 9.142857 19.382858 23.405714 23.405714 0 0 0 13.897143 8.777142 79.725714 79.725714 0 0 0 16.822857 1.828572 45.348571 45.348571 0 0 0 11.337143 0 17.554286 17.554286 0 0 0 8.045714-4.022857 18.651429 18.651429 0 0 0 4.388571-6.948572 60.708571 60.708571 0 0 0 3.657143-19.748571v-6.948572-2.194285l-2.56-5.485715h-5.851428a97.645714 97.645714 0 0 0-21.577143-7.68z" p-id="3505" fill="#1296db"></path></svg>