<?xml version="1.0" standalone="no"?><!DOCTYPE svg PUBLIC "-//W3C//DTD SVG 1.1//EN" "http://www.w3.org/Graphics/SVG/1.1/DTD/svg11.dtd"><svg t="1614928448719" class="icon" viewBox="0 0 1024 1024" version="1.1" xmlns="http://www.w3.org/2000/svg" p-id="7961" xmlns:xlink="http://www.w3.org/1999/xlink" width="200" height="200"><defs><style type="text/css"></style></defs><path d="M892.732095 1024h-0.959996l-772.317225-10.399963A72.159741 72.159741 0 0 1 48.41513 940.6403L58.815092 144.003162a87.839684 87.839684 0 0 1 89.11968-87.199686l756.317282 9.919964a72.159741 72.159741 0 0 1 71.039745 72.959738l-10.559962 812.957078a72.159741 72.159741 0 0 1-71.999742 71.359744z m0-47.999828a23.679915 23.679915 0 0 0 24.319913-23.679914l10.559962-812.957079a23.839914 23.839914 0 0 0-6.879975-17.119938 22.879918 22.879918 0 0 0-15.999943-7.199974L147.294774 104.803303A39.999856 39.999856 0 0 0 106.81492 144.003162L96.414957 941.280297a24.479912 24.479912 0 0 0 6.879976 17.119939 24.159913 24.159913 0 0 0 16.799939 7.199974z" fill="#3D3D3D" p-id="7962"></path><path d="M490.65354 432.002127l-223.999195-3.039989a31.999885 31.999885 0 1 1 0-63.99977l224.319194 3.039989a31.999885 31.999885 0 0 1 0 63.99977zM618.013083 698.56117l-356.15872-4.639984a31.999885 31.999885 0 0 1-31.999885-31.999885 31.999885 31.999885 0 0 1 31.999885-31.999885l356.15872 4.639984a31.999885 31.999885 0 0 1 0 63.99977zM464.413635 66.243442L295.774241 64.00345a31.999885 31.999885 0 0 1 0.959996-63.99977l168.639394 2.239992a31.999885 31.999885 0 0 1 0 63.99977z" fill="#F683A2" p-id="7963"></path></svg>